<?xml version="1.0" encoding="UTF-8" standalone="no"?>
<svg
   version="1.1"
   viewBox="0 0 40.668091 40.634915"
   x="0px"
   y="0px"
   id="svg2"
   width="256.20901"
   height="256"
   xmlns="http://www.w3.org/2000/svg"
   xmlns:svg="http://www.w3.org/2000/svg">
  <defs
     id="defs2" />
  <g
     id="g5"
     transform="matrix(0.99848579,0,0,1.000336,-1944.5621,-1802.4739)">
    <g
       transform="matrix(1,0,0,1.0551143,-348.53089,-1600.6867)"
       id="g1">
      <path
         d="m 2325.0696,3260.9811 c -0.3713,-0.059 -0.7337,-0.2195 -1.0262,-0.4553 -0.4534,-0.3655 -0.7577,-0.9242 -0.8278,-1.5196 -0.019,-0.164 -0.01,-0.5372 0.021,-0.685 0.042,-0.2157 0.1083,-0.4248 0.1839,-0.5795 0.031,-0.064 0.026,-0.071 -0.01,-0.01 -0.013,0.024 -0.026,0.043 -0.03,0.043 0,0 -0.1142,-0.069 -0.2461,-0.1526 -0.4211,-0.2681 -7.1248,-4.5198 -8.3588,-5.3014 -0.3474,-0.22 -0.6332,-0.4014 -0.6351,-0.4029 0,0 0.01,-0.021 0.022,-0.044 0.057,-0.095 0.049,-0.09 -0.03,0.018 -0.087,0.1196 -0.2754,0.3119 -0.4012,0.4099 -0.2997,0.2334 -0.6218,0.3771 -0.9882,0.4409 -0.1555,0.027 -0.5267,0.027 -0.6769,0 -0.4266,-0.077 -0.7807,-0.2475 -1.0969,-0.5286 -0.2274,-0.2022 -0.3989,-0.4327 -0.5332,-0.7169 -0.2,-0.4234 -0.2659,-0.875 -0.1989,-1.3634 0,-0.03 0,-0.025 -0.011,0.02 -0.01,0.034 -0.021,0.062 -0.026,0.062 -0.017,0 -1.9321,-0.483 -4.9017,-1.2365 -0.6433,-0.1633 -1.2741,-0.3229 -1.4018,-0.3548 -0.1848,-0.046 -0.2313,-0.061 -0.2279,-0.074 0.021,-0.078 0.01,-0.073 -0.019,0.01 -0.073,0.203 -0.1953,0.4271 -0.3387,0.6184 -0.1387,0.1851 -0.4001,0.4218 -0.5979,0.5415 -0.4202,0.2542 -0.9027,0.3567 -1.3925,0.2961 -0.823,-0.102 -1.5387,-0.7076 -1.8008,-1.5237 -0.2695,-0.8396 -0.059,-1.7437 0.5488,-2.3538 0.1671,-0.1678 0.3133,-0.2775 0.5206,-0.3904 0.1113,-0.061 0.1359,-0.079 0.063,-0.048 l -0.035,0.015 -0.015,-0.045 c -0.01,-0.025 -0.1476,-0.4321 -0.3096,-0.905 -1.3364,-3.9011 -1.5668,-4.5752 -1.5668,-4.5843 0,-0.01 0.027,-0.021 0.06,-0.033 0.033,-0.012 0.048,-0.02 0.034,-0.017 -0.325,0.074 -0.4285,0.086 -0.6526,0.077 -0.092,0 -0.2259,-0.016 -0.2977,-0.029 -0.614,-0.1041 -1.1572,-0.4801 -1.4949,-1.0345 -0.4011,-0.6587 -0.4425,-1.503 -0.1082,-2.2053 0.4403,-0.9249 1.4113,-1.4223 2.3935,-1.226 0.1582,0.032 0.3729,0.1072 0.5368,0.1889 0.077,0.038 0.1291,0.06 0.1157,0.048 -0.015,-0.013 -0.021,-0.027 -0.016,-0.035 0.01,-0.012 2.4559,-3.6083 2.4652,-3.62 0,0 0.026,0.012 0.053,0.031 0.032,0.023 0.01,0 -0.065,-0.077 -0.3833,-0.377 -0.6129,-0.8384 -0.6791,-1.3646 -0.018,-0.1464 -0.021,-0.4145 -0.01,-0.5487 0.079,-0.6745 0.4249,-1.261 0.9644,-1.6346 0.2835,-0.1963 0.5915,-0.3157 0.932,-0.3614 0.1912,-0.026 0.5109,-0.016 0.6932,0.02 0.6745,0.1356 1.2477,0.5876 1.5516,1.2236 0.037,0.077 0.067,0.1372 0.067,0.1338 0,0 -0.01,-0.027 -0.016,-0.052 -0.01,-0.026 -0.014,-0.048 -0.013,-0.05 0.01,-0.01 5.9447,-2.059 5.9563,-2.059 0.01,0 0.017,0.022 0.024,0.049 0.02,0.075 0.023,0.051 0,-0.039 -0.045,-0.2179 -0.06,-0.5231 -0.036,-0.7397 0.046,-0.4181 0.2084,-0.8208 0.4673,-1.1609 0.081,-0.1066 0.2837,-0.3111 0.3885,-0.3924 0.2636,-0.2043 0.5576,-0.3406 0.8876,-0.4116 0.1276,-0.027 0.184,-0.033 0.3578,-0.039 0.3959,-0.012 0.7015,0.055 1.0363,0.2244 0.4458,0.2261 0.7916,0.584 1.0082,1.0435 0.1446,0.3067 0.2067,0.5691 0.2174,0.9193 0.01,0.1888 0.01,0.2061 0.015,0.1358 0,-0.044 0.01,-0.081 0.01,-0.082 0,0 0.2537,0.027 0.561,0.062 0.3073,0.035 1.3387,0.1511 2.2921,0.2582 3.0173,0.3388 3.6538,0.4106 3.6993,0.4173 0.044,0.01 0.044,0.01 0.045,0.051 0,0.036 0.01,0.023 0.025,-0.063 0.046,-0.2041 0.1428,-0.4509 0.2464,-0.6286 0.3573,-0.6125 0.9385,-1.0029 1.6335,-1.0973 0.1247,-0.017 0.4906,-0.01 0.6162,0.016 0.2796,0.052 0.5482,0.1562 0.7753,0.2996 0.206,0.1301 0.4595,0.3678 0.6061,0.5683 0.2282,0.3121 0.3765,0.6873 0.4263,1.0786 0.026,0.2003 0.015,0.55 -0.022,0.731 -0.055,0.2716 -0.1402,0.5011 -0.272,0.7354 -0.022,0.039 -0.023,0.043 -0.01,0.023 0.012,-0.014 0.026,-0.034 0.031,-0.043 0.012,-0.021 -0.1176,-0.1179 1.2736,0.9506 2.8317,2.1751 3.5037,2.6908 3.7842,2.9039 0.1643,0.125 0.299,0.2316 0.2992,0.2369 0,0.01 -0.012,0.027 -0.028,0.049 -0.015,0.021 0.03,-0.02 0.1018,-0.091 0.1414,-0.1416 0.2357,-0.2194 0.3803,-0.3136 0.2102,-0.137 0.4767,-0.2466 0.7362,-0.3029 0.1614,-0.035 0.4709,-0.048 0.6592,-0.028 0.8974,0.097 1.6599,0.7782 1.8839,1.6832 0.057,0.2286 0.071,0.3639 0.065,0.6268 0,0.1411 -0.012,0.2639 -0.022,0.3244 -0.084,0.479 -0.2947,0.8988 -0.6134,1.2244 -0.1793,0.1831 -0.3203,0.2905 -0.5415,0.4125 -0.1163,0.064 -0.1412,0.083 -0.069,0.051 l 0.035,-0.015 0.027,0.077 c 0.3117,0.9108 1.1868,3.4965 1.1868,3.5069 0,0.01 -0.019,0.02 -0.042,0.027 -0.073,0.022 -0.04,0.02 0.086,-0.01 0.5428,-0.1141 1.0973,-0.019 1.5609,0.2666 0.8101,0.4998 1.22,1.4591 1.0322,2.4151 -0.1302,0.6624 -0.5628,1.2512 -1.1443,1.5575 -0.1659,0.087 -0.2805,0.133 -0.4441,0.1769 -0.331,0.089 -0.6659,0.098 -1.0014,0.028 -0.1768,-0.037 -0.3311,-0.091 -0.5065,-0.1784 -0.083,-0.041 -0.142,-0.068 -0.1305,-0.06 0.064,0.048 0.097,-0.014 -0.361,0.6819 -0.7445,1.1309 -1.4535,2.2058 -1.4604,2.2139 0,0 -0.035,-0.012 -0.069,-0.036 -0.05,-0.035 -0.054,-0.037 -0.021,-0.01 0.09,0.076 0.2722,0.2686 0.3491,0.3672 0.1957,0.251 0.3514,0.5853 0.4191,0.8999 0.038,0.1754 0.051,0.3096 0.051,0.5108 0,0.275 -0.032,0.4835 -0.1103,0.727 -0.076,0.2362 -0.2269,0.5177 -0.3806,0.7114 -0.074,0.093 -0.2516,0.2732 -0.3494,0.3538 -0.2248,0.1853 -0.5514,0.3464 -0.8479,0.4182 -0.3058,0.074 -0.6917,0.074 -1.0004,0 -0.1874,-0.045 -0.4384,-0.1485 -0.5978,-0.2462 -0.07,-0.043 -0.072,-0.036 0,0.01 0.029,0.019 0.052,0.039 0.052,0.045 0,0.01 -0.5682,0.8543 -2.1253,3.1619 -0.2248,0.3331 -0.6381,0.9463 -0.9184,1.3627 -0.2803,0.4164 -0.5259,0.7801 -0.5456,0.8083 l -0.036,0.051 -0.038,-0.03 c -0.021,-0.016 0.023,0.034 0.098,0.1109 0.2004,0.2065 0.3184,0.373 0.4319,0.6096 0.1507,0.314 0.2171,0.5896 0.2273,0.9425 0.011,0.3798 -0.054,0.7129 -0.2032,1.0395 -0.3146,0.6898 -0.9571,1.1822 -1.6707,1.2806 -0.1436,0.02 -0.5065,0.019 -0.6346,0 z m -1.3984,-3.6522 c 0.1235,-0.1638 0.3155,-0.349 0.4847,-0.4676 0.1089,-0.076 0.1128,-0.08 0.047,-0.046 l -0.053,0.027 -0.312,-0.6236 c -0.1716,-0.3429 -0.6989,-1.3961 -1.1719,-2.3403 -0.4729,-0.9442 -0.8599,-1.7216 -0.8599,-1.7275 0,-0.01 0.022,-0.023 0.05,-0.037 0.066,-0.036 0.055,-0.034 -0.038,0 -0.2249,0.095 -0.4541,0.1409 -0.7401,0.1485 -0.2997,0.01 -0.5145,-0.024 -0.7703,-0.1161 -0.7442,-0.2668 -1.2951,-0.9259 -1.4417,-1.725 -0.019,-0.1027 -0.024,-0.1191 -0.025,-0.079 0,0.028 0,0.051 -0.01,0.051 0,0 -0.2599,0.015 -0.5665,0.033 -1.286,0.075 -3.3568,0.1942 -3.4988,0.2011 l -0.153,0.01 -0.01,-0.069 c 0,-0.038 -0.01,-0.091 -0.01,-0.1177 0,-0.027 0,0.018 -0.01,0.1 0,0.314 -0.068,0.6075 -0.1963,0.8953 -0.025,0.057 -0.036,0.091 -0.025,0.076 0.012,-0.015 0.023,-0.036 0.027,-0.047 0,-0.013 0.012,-0.017 0.024,-0.013 0.015,0.01 2.7917,1.7647 3.2023,2.0282 0.08,0.052 0.8816,0.5601 1.7804,1.1299 0.8988,0.5699 2.0925,1.3266 2.6524,1.6818 0.56,0.3552 1.1474,0.7273 1.3053,0.8271 0.158,0.1 0.2889,0.1829 0.291,0.1848 0,0 -0.01,0.021 -0.019,0.042 -0.035,0.058 -0.02,0.046 0.037,-0.029 z m 2.8551,-0.542 c 0,0 -0.019,-0.017 -0.042,-0.033 -0.023,-0.016 -0.042,-0.033 -0.042,-0.039 0,-0.01 0.2782,-0.4235 1.7435,-2.5958 0.2388,-0.3539 0.758,-1.1241 1.1538,-1.7115 0.3958,-0.5874 0.7238,-1.068 0.7288,-1.068 0.01,0 0.026,0.014 0.047,0.03 0.021,0.016 -0.03,-0.041 -0.1135,-0.1271 -0.1634,-0.1691 -0.2535,-0.2866 -0.3542,-0.4617 -0.063,-0.109 -0.065,-0.1115 -0.1024,-0.1116 -0.021,0 -0.3461,-0.015 -0.7223,-0.032 -0.3762,-0.018 -1.262,-0.059 -1.9685,-0.092 -2.4983,-0.1158 -3.6133,-0.1681 -3.6339,-0.1707 -0.019,0 -0.021,-0.01 -0.019,-0.067 0,-0.06 0,-0.057 -0.013,0.032 -0.098,0.6374 -0.4518,1.2134 -0.9549,1.5546 -0.098,0.066 -0.1034,0.072 -0.033,0.036 0.031,-0.016 0.06,-0.025 0.064,-0.02 0,0 0.5141,1.0213 1.1331,2.2586 0.619,1.2372 1.1459,2.2888 1.1709,2.3368 l 0.045,0.087 -0.038,0.019 c -0.059,0.029 -0.035,0.031 0.034,0 0.3467,-0.1453 0.8243,-0.186 1.2166,-0.1038 0.2068,0.043 0.4833,0.1544 0.6962,0.2796 0,0 0,0 0,0 z m -11.939,-6.5906 c 0,-0.01 0,0 0,0.019 0,0.021 0,0.029 0,0.019 0,-0.01 0,-0.028 0,-0.038 z m 1.533,-0.182 c 0.8443,-0.048 1.7771,-0.1012 2.0729,-0.1171 0.2958,-0.016 0.5566,-0.03 0.5795,-0.031 h 0.042 l 0.01,0.092 c 0.01,0.089 0.01,0.087 0.012,-0.065 0.026,-0.549 0.2406,-1.0631 0.6127,-1.4641 0.062,-0.067 0.082,-0.093 0.053,-0.068 -0.026,0.022 -0.052,0.04 -0.058,0.04 -0.01,0 -2.6793,-3.4204 -2.6868,-3.4419 0,-0.01 0.014,-0.028 0.037,-0.048 0.029,-0.026 0.013,-0.018 -0.051,0.025 -0.1812,0.1206 -0.4276,0.228 -0.6548,0.2857 -0.1825,0.046 -0.2974,0.059 -0.5273,0.059 -0.2388,0 -0.383,-0.021 -0.5955,-0.084 -0.069,-0.02 -0.1263,-0.036 -0.1279,-0.035 0,0 0.019,0.012 0.045,0.022 0.037,0.014 0.046,0.023 0.041,0.037 0,0.01 -0.3194,0.7586 -0.7018,1.6639 l -0.6952,1.6462 -0.031,-0.017 c -0.017,-0.01 -0.033,-0.014 -0.036,-0.012 0,0 0.033,0.028 0.079,0.056 0.347,0.2108 0.65,0.5517 0.8336,0.9381 0.092,0.1939 0.1737,0.4524 0.197,0.625 0.01,0.056 0.01,0.057 0.013,0.022 l 0.01,-0.037 z m 13.267,0.07 c -0.047,-0.1702 -0.053,-0.6159 -0.011,-0.8545 0.042,-0.2375 0.1125,-0.4522 0.2178,-0.6587 0.1063,-0.2083 0.2159,-0.3625 0.3824,-0.538 l 0.095,-0.1 -0.058,-0.062 c -0.1127,-0.1209 -1.5112,-1.6133 -1.8181,-1.9401 -0.1711,-0.1822 -0.3111,-0.3354 -0.3111,-0.3403 0,-0.01 0.022,-0.033 0.05,-0.062 l 0.05,-0.053 -0.068,0.056 c -0.2818,0.234 -0.6301,0.4006 -0.9876,0.4721 -0.1303,0.026 -0.1692,0.029 -0.3751,0.029 -0.2561,0 -0.3682,-0.013 -0.5744,-0.068 -0.2775,-0.074 -0.5218,-0.1979 -0.7832,-0.3967 l -0.063,-0.048 0.056,0.053 0.056,0.053 -1.0315,1.167 c -0.5673,0.6419 -1.1325,1.2815 -1.2558,1.4213 -0.1234,0.1398 -0.2329,0.2636 -0.2434,0.2753 -0.019,0.021 -0.019,0.021 -0.048,-0.01 -0.045,-0.044 -0.054,-0.035 -0.011,0.011 0.3302,0.3611 0.547,0.9287 0.5537,1.4496 v 0.1376 l 0.01,-0.1154 c 0,-0.064 0.01,-0.118 0.012,-0.1213 0.01,-0.01 2.7462,0.1178 5.649,0.2569 0.2785,0.013 0.5096,0.023 0.5135,0.021 0,0 0,-0.018 0,-0.037 z m -18.9486,-0.5885 c 0.1029,-0.2177 0.2226,-0.3909 0.4025,-0.5827 0.2843,-0.3029 0.6302,-0.5105 1.0238,-0.6143 0.185,-0.049 0.3049,-0.063 0.543,-0.063 0.2695,0 0.4532,0.027 0.6572,0.099 0.1086,0.038 0.1169,0.038 0.04,0 l -0.059,-0.029 0.699,-1.6538 c 0.3844,-0.9095 0.7015,-1.6563 0.7045,-1.6594 0,0 0.022,0 0.043,0.013 0.064,0.032 0.049,0.014 -0.025,-0.03 -0.3696,-0.2191 -0.6686,-0.5519 -0.8648,-0.9625 -0.037,-0.077 -0.067,-0.1372 -0.067,-0.1338 0,0 0.01,0.026 0.015,0.05 0.01,0.024 0.012,0.046 0.01,0.048 0,0 -0.4043,0.1392 -0.8896,0.3042 -1.5562,0.5289 -2.3575,0.8015 -3.1484,1.0712 -0.4251,0.1449 -1.184,0.403 -1.6865,0.5735 -0.5026,0.1704 -1.4824,0.5037 -2.1773,0.7405 -1.378,0.4696 -1.8765,0.6381 -1.8874,0.6381 0,0 -0.013,-0.02 -0.02,-0.043 -0.021,-0.073 -0.02,-0.042 0,0.075 0.041,0.2171 0.047,0.5213 0.016,0.7736 -0.01,0.042 0,0.042 0.01,-0.01 0.01,-0.029 0.016,-0.054 0.018,-0.056 0,0 0.1256,0.027 0.2749,0.065 0.1494,0.038 1.1973,0.3028 2.3287,0.5892 1.1315,0.2863 2.4613,0.6227 2.9553,0.7475 0.4939,0.1247 0.916,0.2318 0.938,0.2379 0.04,0.011 0.04,0.011 0.034,0.056 -0.01,0.037 0,0.029 0.026,-0.041 0.017,-0.048 0.057,-0.1401 0.088,-0.2055 z m 11.9837,-1.2424 c 0,0 -0.01,-0.011 -0.018,-0.019 -0.017,-0.014 -0.017,-0.013 0,0 0.014,0.018 0.022,0.024 0.022,0.015 z m -0.081,-0.074 -0.032,-0.035 0.2784,-0.3142 c 0.1531,-0.1728 0.7269,-0.8214 1.2751,-1.4413 l 0.9967,-1.1272 0.046,0.046 c 0.026,0.025 0.041,0.036 0.035,0.024 -0.01,-0.012 -0.023,-0.034 -0.039,-0.049 -0.016,-0.015 -0.058,-0.066 -0.094,-0.1136 -0.2929,-0.3878 -0.4593,-0.8682 -0.4663,-1.3465 v -0.1244 l -0.01,0.089 c 0,0.049 -0.01,0.091 -0.012,0.094 -0.01,0.01 -0.1871,-0.01 -2.7249,-0.1826 -0.7322,-0.051 -1.8648,-0.1285 -2.5166,-0.1731 -0.6519,-0.044 -1.2193,-0.084 -1.261,-0.088 l -0.076,-0.01 v -0.056 c 0,-0.03 0,-0.043 -0.01,-0.028 -0.082,0.4949 -0.2678,0.8842 -0.5897,1.2387 -0.069,0.076 -0.083,0.095 -0.048,0.066 l 0.05,-0.042 0.02,0.026 c 0.011,0.014 0.6172,0.792 1.3476,1.7286 l 1.328,1.7029 -0.04,0.036 c -0.029,0.026 -0.015,0.02 0.054,-0.025 0.2572,-0.1657 0.5523,-0.2761 0.8628,-0.323 0.1419,-0.021 0.4377,-0.022 0.5914,0 0.3432,0.047 0.7281,0.2062 0.9893,0.4097 0.075,0.059 0.082,0.061 0.04,0.015 z m -18.5835,-0.01 c 0,-0.01 -0.01,-0.01 -0.01,0.01 0,0.011 0,0.018 0.01,0.014 0,0 0,-0.013 0,-0.021 z m 28.8978,-0.4999 c 0,0 -0.021,-0.018 -0.047,-0.035 -0.026,-0.017 -0.047,-0.034 -0.047,-0.038 0,0 0.2334,-0.3619 0.5188,-0.795 0.2853,-0.433 0.7062,-1.072 0.9353,-1.42 0.229,-0.348 0.4208,-0.6343 0.4261,-0.6363 0.01,0 0.025,0.01 0.044,0.021 0.019,0.014 -0.028,-0.037 -0.1038,-0.1136 -0.2288,-0.2299 -0.3802,-0.4536 -0.4991,-0.7371 -0.06,-0.1424 -0.1071,-0.2965 -0.1366,-0.4432 -0.02,-0.099 -0.024,-0.1106 -0.025,-0.068 0,0.062 0.022,0.055 -0.2983,0.08 -0.1264,0.01 -0.7326,0.058 -1.3471,0.1081 -2.4281,0.1974 -3.3259,0.2681 -3.3316,0.2622 0,0 -0.01,-0.047 -0.014,-0.097 -0.01,-0.089 -0.01,-0.088 -0.01,0.061 -0.01,0.5009 -0.1865,1.011 -0.4937,1.3901 -0.063,0.078 -0.064,0.079 -0.02,0.044 l 0.045,-0.037 0.091,0.097 c 0.05,0.053 0.5572,0.5941 1.1272,1.2022 l 1.0365,1.1057 0.074,-0.039 c 0.2723,-0.1421 0.6112,-0.2204 0.9531,-0.2204 0.3608,0 0.6714,0.075 0.9712,0.2337 0.17,0.09 0.1514,0.081 0.1514,0.075 z m -29.0396,-0.8298 c -0.01,-0.019 -0.01,-0.038 0,-0.042 0,0 0.4991,-0.1737 1.0992,-0.3773 0.6002,-0.2035 1.5824,-0.5373 2.1825,-0.7416 0.6002,-0.2044 1.5447,-0.5258 2.099,-0.7141 0.5542,-0.1883 1.527,-0.5193 2.1616,-0.7354 1.9265,-0.656 2.2181,-0.7547 2.2334,-0.7558 0.01,0 0.022,0.021 0.033,0.053 0.024,0.071 0.024,0.062 0,-0.055 -0.035,-0.1669 -0.046,-0.3087 -0.04,-0.5286 0.01,-0.3476 0.068,-0.6008 0.2118,-0.9125 0.1018,-0.2205 0.226,-0.4067 0.4015,-0.6021 0.055,-0.061 0.059,-0.068 0.022,-0.035 -0.026,0.022 -0.05,0.04 -0.054,0.04 -0.01,0 -0.4337,-0.5269 -2.0793,-2.5669 l -0.5399,-0.6693 0.044,-0.038 c 0.074,-0.064 0.068,-0.062 -0.04,0.013 -0.1878,0.1297 -0.4166,0.2355 -0.6544,0.3024 -0.242,0.068 -0.586,0.09 -0.8491,0.055 -0.3099,-0.042 -0.6385,-0.1674 -0.8983,-0.3426 -0.038,-0.025 -0.048,-0.03 -0.027,-0.012 0.02,0.017 0.047,0.04 0.06,0.052 l 0.024,0.022 -0.3624,0.4867 c -0.1993,0.2677 -0.6609,0.8882 -1.0257,1.3789 -0.3649,0.4908 -1.1032,1.4836 -1.6409,2.2064 -0.5376,0.7227 -1.3011,1.7496 -1.6967,2.282 -0.3955,0.5324 -0.8127,1.0935 -0.9271,1.247 l -0.2079,0.279 -0.038,-0.03 c -0.021,-0.016 0.01,0.019 0.061,0.078 0.1734,0.1885 0.3359,0.432 0.419,0.6279 0.034,0.079 0.053,0.1015 0.031,0.035 z m -0.5546,-0.7705 c 0,0 -0.01,-0.011 -0.018,-0.019 -0.017,-0.014 -0.017,-0.013 0,0 0.014,0.018 0.022,0.024 0.022,0.015 z m -0.2987,-0.2414 -0.032,-0.028 0.6961,-0.9366 c 0.3829,-0.5152 0.9893,-1.3309 1.3476,-1.8127 0.3583,-0.4818 1.0604,-1.426 1.5601,-2.0981 1.9586,-2.6343 2.2439,-3.0178 2.252,-3.027 0,-0.01 0.031,0.01 0.059,0.032 0.031,0.026 0.01,-0.01 -0.065,-0.082 -0.064,-0.068 -0.1392,-0.1555 -0.1683,-0.1942 -0.1787,-0.2372 -0.3101,-0.5102 -0.3958,-0.8219 -0.016,-0.059 -0.024,-0.077 -0.022,-0.051 0,0.034 0,0.042 -0.018,0.046 -0.012,0 -0.1812,0.027 -0.3765,0.054 -0.343,0.047 -1.2869,0.1789 -4.8192,0.6717 -0.9161,0.1278 -1.8066,0.2518 -1.9789,0.2756 -0.1723,0.024 -0.3233,0.045 -0.3356,0.048 -0.02,0 -0.023,0 -0.033,-0.068 -0.01,-0.065 -0.01,-0.052 -0.012,0.1183 0,0.2584 -0.02,0.3947 -0.086,0.6319 -0.1315,0.4768 -0.4352,0.9146 -0.8421,1.2138 -0.09,0.066 -0.2525,0.1646 -0.3263,0.1974 -0.064,0.028 -0.064,0.038 0,0.015 0.025,-0.01 0.046,-0.015 0.047,-0.014 0,0 0.3465,1.0078 0.7671,2.2362 0.4206,1.2283 0.8464,2.4715 0.9461,2.7625 0.1,0.2911 0.1788,0.532 0.1756,0.5354 0,0 -0.021,0.012 -0.039,0.02 -0.023,0.01 -0.025,0.012 -0.01,0.01 0.1983,-0.044 0.3357,-0.059 0.5347,-0.059 0.2953,0 0.4991,0.035 0.7445,0.1262 0.1234,0.046 0.3109,0.1376 0.3916,0.191 0.069,0.045 0.08,0.049 0.035,0.01 z m 21.644,-2.6151 c 0.1121,-0.4552 0.3552,-0.8578 0.7146,-1.1838 0.059,-0.053 0.06,-0.055 0.014,-0.023 l -0.048,0.033 -0.9242,-1.4139 c -0.5083,-0.7776 -0.9916,-1.5171 -1.074,-1.6433 -0.082,-0.1262 -0.3332,-0.5098 -0.5571,-0.8525 -0.224,-0.3427 -0.4087,-0.627 -0.4103,-0.6317 0,0 0.021,-0.024 0.05,-0.044 0.029,-0.019 0.053,-0.036 0.053,-0.038 0,0 -0.064,0.03 -0.1422,0.071 -0.3118,0.1618 -0.6225,0.2369 -0.9787,0.2369 -0.3636,0 -0.6472,-0.067 -0.966,-0.2297 -0.073,-0.037 -0.1352,-0.069 -0.1389,-0.071 0,0 -0.464,0.6209 -1.0228,1.3841 -0.5588,0.7632 -1.2014,1.6407 -1.4279,1.95 -0.2265,0.3094 -0.4203,0.5717 -0.4307,0.5831 -0.019,0.02 -0.02,0.02 -0.075,-0.023 -0.04,-0.031 -0.02,-0.01 0.07,0.088 0.4088,0.4251 0.6366,0.9751 0.6433,1.5531 v 0.1461 l 0.01,-0.1009 c 0,-0.055 0.01,-0.1027 0.012,-0.105 0,0 0.5153,0.031 3.8303,0.2604 1.4395,0.1 2.7364,0.1888 2.7468,0.1888 0,0 0.01,0.028 0,0.062 0,0.06 0,0.059 0.012,-0.024 0.01,-0.048 0.025,-0.1255 0.037,-0.1731 z m 4.2973,0.1791 -0.01,-0.064 0.045,-0.01 c 0.025,0 0.5312,-0.045 1.1256,-0.093 0.5945,-0.048 1.6542,-0.133 2.3548,-0.1899 0.7007,-0.057 1.3172,-0.1061 1.3701,-0.1096 l 0.096,-0.01 v 0.064 0.064 -0.072 c 0.01,-0.3733 0.1087,-0.7504 0.2792,-1.069 0.1,-0.1862 0.1888,-0.3094 0.3437,-0.4744 0.1829,-0.1948 0.3582,-0.3297 0.5854,-0.4503 0.1155,-0.061 0.1308,-0.073 0.057,-0.042 -0.023,0.01 -0.044,0.016 -0.045,0.014 0,0 -0.034,-0.097 -0.072,-0.2095 -0.038,-0.113 -0.3115,-0.9181 -0.6074,-1.7891 -0.296,-0.871 -0.5355,-1.5864 -0.5323,-1.5899 0,0 0.028,-0.015 0.055,-0.025 0.027,-0.01 0.037,-0.017 0.023,-0.014 -0.014,0 -0.071,0.015 -0.1253,0.027 -0.3049,0.065 -0.6842,0.057 -0.9778,-0.02 -0.2116,-0.056 -0.4654,-0.1684 -0.6355,-0.2814 -0.066,-0.044 -0.075,-0.048 -0.043,-0.019 0.028,0.026 0.038,0.041 0.032,0.052 -0.015,0.026 -3.8739,5.0137 -3.9061,5.0489 l -0.024,0.026 -0.045,-0.037 c -0.029,-0.024 -0.012,0 0.046,0.062 0.2384,0.2612 0.3981,0.533 0.5033,0.857 0.044,0.1347 0.09,0.3345 0.09,0.3883 0,0.012 0,0.023 0.01,0.023 0,0 0,-0.029 0,-0.064 z m -0.9558,-1.5238 -0.046,-0.041 0.7271,-0.9401 c 1.023,-1.3227 3.2043,-4.1406 3.2089,-4.1455 0,0 0.029,0.017 0.059,0.043 0.038,0.033 0.021,0.011 -0.055,-0.072 -0.3305,-0.3562 -0.536,-0.7939 -0.5995,-1.2771 -0.014,-0.1041 -0.014,-0.1051 -0.015,-0.039 v 0.068 h -0.034 c -0.037,0 -2.1525,0.056 -4.0647,0.1078 -0.6605,0.018 -1.6661,0.044 -2.2347,0.059 -0.5686,0.015 -1.1149,0.03 -1.214,0.034 l -0.1801,0.01 v -0.1283 -0.1284 l -0.01,0.1676 c -0.022,0.4668 -0.1958,0.9392 -0.4768,1.2978 -0.064,0.082 -0.2641,0.2894 -0.3422,0.3553 -0.04,0.033 -0.039,0.033 0.019,-0.01 0.049,-0.033 0.063,-0.037 0.07,-0.025 0.01,0.01 0.092,0.1419 0.1934,0.2967 0.9493,1.4494 2.7617,4.2275 2.7616,4.2331 0,0 -0.028,0.026 -0.063,0.049 -0.071,0.047 -0.086,0.066 -0.018,0.023 0.1451,-0.092 0.3689,-0.1863 0.5625,-0.2368 0.472,-0.123 0.9728,-0.081 1.4124,0.1184 0.1118,0.051 0.2611,0.1351 0.3355,0.1895 0.058,0.043 0.061,0.039 0.01,-0.01 z m -13.6477,-0.5399 c 0.013,-0.017 0.013,-0.018 0,0 -0.017,0.014 -0.023,0.023 -0.014,0.023 0,0 0.011,-0.01 0.018,-0.019 z m 0.3316,-0.2561 c 0.2461,-0.1546 0.5146,-0.2558 0.8106,-0.3054 0.1583,-0.027 0.4877,-0.026 0.6474,0 0.1421,0.024 0.2875,0.061 0.4087,0.1049 0.1102,0.04 0.337,0.1525 0.4319,0.2147 0.061,0.04 0.058,0.036 -0.024,-0.032 -0.02,-0.016 0,-0.044 0.5026,-0.7301 0.2876,-0.3922 0.9384,-1.28 1.446,-1.973 l 0.9231,-1.26 -0.091,-0.1 c -0.2414,-0.2646 -0.4433,-0.6603 -0.5205,-1.0198 -0.012,-0.057 -0.026,-0.127 -0.032,-0.1568 l -0.01,-0.054 v 0.065 0.065 l -0.6735,0.051 c -0.3705,0.028 -1.2633,0.095 -1.9841,0.1492 -0.7208,0.054 -1.8972,0.1422 -2.6143,0.1959 -0.717,0.054 -1.3059,0.095 -1.3087,0.093 0,0 -0.01,-0.048 -0.012,-0.1008 -0.01,-0.091 -0.01,-0.086 -0.014,0.099 0,0.1476 -0.013,0.23 -0.034,0.3407 -0.08,0.4136 -0.2693,0.7989 -0.5417,1.1006 -0.086,0.095 -0.1035,0.1235 -0.041,0.067 0.037,-0.034 0.039,-0.034 0.055,-0.014 0.025,0.032 1.6094,1.9944 2.1333,2.6428 l 0.4675,0.5786 -0.05,0.047 c -0.038,0.036 -0.041,0.041 -0.012,0.02 0.02,-0.015 0.081,-0.055 0.1338,-0.088 z m -2.796,-3.1291 c 0.013,-0.017 0.013,-0.018 0,0 -0.017,0.014 -0.023,0.023 -0.014,0.023 0,0 0.01,-0.01 0.018,-0.019 z m -11.254,-0.511 c 0,-0.042 0,-0.065 0,-0.065 0.01,0 0.2872,-0.039 0.6253,-0.086 0.3381,-0.047 1.054,-0.1472 1.591,-0.222 0.537,-0.075 1.1644,-0.1624 1.3941,-0.1948 0.4744,-0.067 3.0211,-0.4224 3.5647,-0.4976 0.1973,-0.027 0.3609,-0.048 0.3636,-0.045 0,0 0.01,0.028 0.013,0.057 0.01,0.04 0.01,0.012 0.01,-0.11 0,-0.089 0.01,-0.2038 0.012,-0.2542 0.039,-0.3284 0.1516,-0.6598 0.3172,-0.9352 0.052,-0.087 0.054,-0.093 0.019,-0.051 l -0.039,0.046 -0.6161,-0.5093 c -0.3388,-0.2801 -1.1154,-0.9211 -1.7256,-1.4245 -0.6103,-0.5034 -1.1095,-0.9197 -1.1095,-0.9251 0,-0.01 0.02,-0.035 0.044,-0.066 0.028,-0.035 0,-0.011 -0.076,0.064 -0.1897,0.1894 -0.3633,0.3155 -0.5884,0.4273 -0.2146,0.1068 -0.4309,0.172 -0.6812,0.2056 -0.1245,0.017 -0.5114,0.01 -0.6255,-0.015 -0.2144,-0.042 -0.4284,-0.1159 -0.6182,-0.2133 -0.077,-0.039 -0.1355,-0.068 -0.1311,-0.064 0,0 0.02,0.017 0.035,0.028 l 0.027,0.021 -1.1423,1.676 c -0.6282,0.9218 -1.1861,1.7404 -1.2397,1.8192 l -0.097,0.1432 -0.046,-0.034 c -0.025,-0.019 0.01,0.018 0.07,0.081 0.2003,0.1975 0.3511,0.4095 0.4657,0.655 0.065,0.139 0.1574,0.4113 0.1702,0.5012 0.011,0.074 0.018,0.063 0.01,-0.014 z m 7.6049,-0.705 c 0,-0.01 -0.01,-0.01 -0.01,0.01 0,0.011 0,0.018 0.01,0.014 0,0 0,-0.013 0,-0.021 z m 4.3249,-0.8227 c 0,-0.05 0,-0.057 0.017,-0.059 0.012,0 0.6083,-0.046 1.3262,-0.1 1.4279,-0.1063 3.5416,-0.2643 4.5722,-0.3418 0.3609,-0.027 0.6591,-0.046 0.6626,-0.043 0,0 0.01,0.044 0.013,0.09 0.01,0.081 0.01,0.081 0.01,-0.041 0.01,-0.5269 0.2041,-1.0489 0.5533,-1.4631 l 0.047,-0.056 -0.057,0.057 -0.057,0.057 -0.9447,-1.0243 c -0.5196,-0.5634 -1.0576,-1.1463 -1.1957,-1.2952 -0.138,-0.1489 -0.7064,-0.7648 -1.2631,-1.3686 -0.5567,-0.6037 -1.015,-1.1001 -1.0185,-1.1031 0,0 -0.066,-0.071 -0.1394,-0.1504 l -0.133,-0.145 0.05,-0.054 0.05,-0.054 -0.068,0.056 c -0.2594,0.2151 -0.6119,0.3828 -0.95,0.452 -0.1296,0.026 -0.1628,0.029 -0.4023,0.029 -0.2728,0 -0.3275,-0.01 -0.5169,-0.054 -0.1524,-0.039 -0.1568,-0.04 -0.075,-0.01 0.042,0.016 0.074,0.035 0.072,0.041 0,0.01 -0.2663,0.7561 -0.5868,1.6662 -1.2164,3.4543 -1.1373,3.2338 -1.1596,3.2329 -0.011,0 -0.032,0 -0.046,-0.01 -0.014,0 0.021,0.018 0.079,0.05 0.2371,0.1311 0.4312,0.2877 0.6192,0.4996 0.2512,0.2831 0.4469,0.6868 0.5157,1.0644 0.013,0.072 0.025,0.1313 0.028,0.1313 0,0 0,-0.025 0,-0.057 z m 11.0008,-0.776 c 0.013,0 0.4647,-0.012 1.0045,-0.027 0.5399,-0.014 1.0921,-0.029 1.227,-0.033 0.135,0 0.8657,-0.023 1.6238,-0.043 0.7582,-0.02 1.846,-0.049 2.4175,-0.064 0.5714,-0.015 1.1271,-0.03 1.2348,-0.034 l 0.1958,-0.01 v 0.1121 0.1122 l 0.01,-0.1354 c 0.021,-0.3526 0.1193,-0.7016 0.2815,-0.9953 0.042,-0.077 0.053,-0.1009 0.032,-0.075 -0.017,0.021 -0.031,0.042 -0.031,0.047 0,0.023 0.1203,0.1139 -1.6659,-1.2569 -0.6547,-0.5026 -1.2703,-0.9755 -1.3679,-1.0511 -0.098,-0.075 -0.6522,-0.501 -1.2323,-0.9455 -0.5801,-0.4446 -1.0636,-0.8171 -1.0744,-0.828 -0.019,-0.019 -0.019,-0.021 0.015,-0.066 0.019,-0.026 0.04,-0.054 0.046,-0.062 0.01,-0.01 -0.045,0.044 -0.1142,0.1177 -0.4282,0.4557 -0.9679,0.6931 -1.5747,0.6928 -0.2425,0 -0.4471,-0.032 -0.6697,-0.1048 -0.046,-0.015 -0.09,-0.029 -0.099,-0.032 -0.01,0 0,0.01 0.027,0.02 l 0.043,0.025 -0.1645,0.3623 c -0.5362,1.1808 -1.2116,2.6723 -1.2116,2.6755 0,0 0.027,0.022 0.06,0.045 0.1603,0.1094 0.3629,0.3012 0.4872,0.4613 0.1495,0.1925 0.2938,0.468 0.3702,0.7067 0.04,0.1263 0.093,0.3753 0.097,0.457 0,0.03 0,0.026 0.01,-0.016 0,-0.05 0.01,-0.057 0.027,-0.057 z m -14.5288,-0.6345 c 0.3038,-0.2459 0.6844,-0.412 1.0608,-0.4631 0.2383,-0.032 0.5625,-0.017 0.7827,0.037 0.095,0.023 0.1335,0.023 0.058,0 -0.033,-0.01 -0.042,-0.018 -0.037,-0.03 0.01,-0.026 1.6954,-4.8101 1.7194,-4.8803 0.01,-0.028 0.012,-0.028 0.043,-0.015 0.088,0.037 0.074,0.024 -0.036,-0.035 -0.1523,-0.081 -0.2375,-0.1382 -0.3696,-0.2479 -0.2548,-0.2117 -0.4732,-0.4967 -0.6121,-0.7984 -0.052,-0.1129 -0.062,-0.1266 -0.035,-0.048 0.01,0.026 0.014,0.048 0.012,0.05 -0.01,0.01 -5.9408,2.0586 -5.9539,2.0586 -0.01,0 -0.018,-0.016 -0.025,-0.035 l -0.012,-0.035 0.01,0.038 c 0,0.021 0.014,0.079 0.023,0.1298 0.023,0.1187 0.025,0.6001 0,0.7246 -0.053,0.3077 -0.1557,0.5944 -0.3033,0.8436 -0.043,0.072 -0.047,0.083 -0.02,0.051 l 0.034,-0.041 0.9409,0.7768 c 0.5174,0.4272 1.294,1.0683 1.7256,1.4248 0.4316,0.3564 0.7848,0.6528 0.7848,0.6586 0,0.01 -0.017,0.033 -0.038,0.06 -0.023,0.03 0.01,0.01 0.071,-0.059 0.06,-0.06 0.1394,-0.1333 0.1768,-0.1635 z m 11.0378,-0.8809 c 0.1436,-0.1072 0.3905,-0.2403 0.5482,-0.2954 0.2537,-0.089 0.4656,-0.1251 0.7256,-0.1251 0.2493,0 0.4223,0.026 0.6744,0.1031 0.02,0.01 0.081,-0.1248 0.7093,-1.5111 0.3782,-0.8346 0.6888,-1.5191 0.6901,-1.5209 0,0 0.032,0.011 0.069,0.03 0.075,0.038 0.071,0.034 -0.058,-0.049 -0.3483,-0.2241 -0.626,-0.5424 -0.8107,-0.9294 -0.1416,-0.2967 -0.2174,-0.6311 -0.2205,-0.9731 0,-0.1342 0,-0.1431 -0.01,-0.078 0,0.041 -0.01,0.075 -0.012,0.077 0,0 -0.3159,-0.033 -0.6978,-0.076 -0.6157,-0.07 -1.5732,-0.1778 -4.8976,-0.5508 -0.5025,-0.056 -0.9336,-0.1054 -0.9581,-0.109 -0.041,-0.01 -0.044,-0.01 -0.045,-0.041 0,-0.02 -0.012,0.012 -0.03,0.082 -0.084,0.3342 -0.2459,0.6582 -0.4556,0.9117 -0.069,0.083 -0.072,0.089 -0.024,0.04 l 0.057,-0.057 0.866,0.9383 c 0.4764,0.516 1.0752,1.1647 1.3308,1.4416 0.2555,0.2768 0.9222,0.999 1.4813,1.6048 l 1.0167,1.1015 -0.051,0.055 -0.051,0.055 0.057,-0.048 c 0.032,-0.027 0.074,-0.061 0.094,-0.076 z m 11.7179,0.058 c 0.013,-0.017 0.013,-0.018 0,0 -0.017,0.014 -0.023,0.023 -0.014,0.023 0,0 0.01,-0.01 0.018,-0.019 z m -9.3614,-5.7591 c 0,-0.01 -0.01,0 -0.01,0.014 0,0.015 0,0.021 0.01,0.014 0,-0.01 0,-0.02 0,-0.027 z m -6.6411,-0.427 c 0,-0.01 -0.01,0 -0.01,0.013 0,0.018 0,0.026 0,0.019 0,-0.01 0,-0.022 0,-0.032 z"
         fill="#000000"
         id="path1"
         style="stroke-width:0.0106273" />
    </g>
  </g>
</svg>
