<svg xmlns:inkscape="http://www.inkscape.org/namespaces/inkscape" xmlns:sodipodi="http://sodipodi.sourceforge.net/DTD/sodipodi-0.dtd" xmlns="http://www.w3.org/2000/svg" xmlns:svg="http://www.w3.org/2000/svg" version="1.1" viewBox="0 0 4025.8403 4180.899375" x="0px" y="0px"><g transform="translate(-348.53089,-1517.0742)"><path style="" d="m 3128.052,4860.3582 c -35.553,-5.4228 -70.2559,-20.2882 -98.273,-42.0965 -43.4116,-33.7911 -72.5596,-85.4527 -79.2741,-140.5047 -1.8494,-15.1634 -0.7736,-49.67 1.9745,-63.3323 4.0121,-19.9462 10.3694,-39.2851 17.6139,-53.5816 2.9897,-5.8998 2.5115,-6.5638 -0.6615,-0.9184 -1.2364,2.2 -2.5225,4 -2.858,4 -0.3354,0 -10.94,-6.351 -23.5658,-14.1133 -40.3271,-24.793 -682.2868,-417.9098 -800.456,-490.1752 -33.275,-20.349 -60.645,-37.1162 -60.8222,-37.2604 -0.1772,-0.1442 0.7545,-1.9922 2.0704,-4.1066 5.4503,-8.7576 4.696,-8.3165 -2.8306,1.6555 -8.3471,11.0591 -26.3733,28.8423 -38.4176,37.8996 -28.7065,21.5874 -59.5439,34.8715 -94.6325,40.7657 -14.8886,2.501 -50.4382,2.4992 -64.8246,0 -40.8516,-7.1063 -74.7637,-22.8848 -105.0429,-48.8741 -21.7771,-18.6918 -38.1977,-40.0109 -51.0569,-66.2879 -19.1561,-39.1443 -25.4645,-80.8986 -19.0454,-126.0581 0.398,-2.8 0.1006,-2.2762 -1.0265,1.8081 -0.8727,3.1625 -1.9853,5.75 -2.4725,5.75 -1.6667,0 -185.0247,-44.6621 -469.3987,-114.3355 -61.6,-15.0923 -122.007,-29.8535 -134.2378,-32.8026 -17.6947,-4.2665 -22.1533,-5.6683 -21.8246,-6.8619 1.9797,-7.1884 0.9433,-6.7289 -1.8537,0.8217 -6.9521,18.7682 -18.7058,39.488 -32.4352,57.1783 -13.2824,17.1142 -38.3109,38.9981 -57.25673,50.0631 -40.2431,23.5032 -86.4422,32.9879 -133.35167,27.3772 -78.80964,-9.4263 -147.34899,-65.4219 -172.44302,-140.8834 -25.81251,-77.6221 -5.6264,-161.2175 52.55389,-217.6381 15.9948,-15.511 29.99886,-25.649 49.8488,-36.0873 10.66423,-5.6079 13.01844,-7.3284 6.03495,-4.4105 l -3.40082,1.4209 -1.44462,-4.1709 c -0.79455,-2.2974 -14.13755,-39.9493 -29.65111,-83.6743 -127.97724,-360.7041 -150.0384,-423.029 -150.0384,-423.8729 0,-0.5282 2.5875,-1.9029 5.75,-3.0549 3.1625,-1.1519 4.625,-1.8481 3.25,-1.5471 -31.12926,6.8144 -41.04094,7.945 -62.5,7.129 -8.8,-0.3346 -21.625,-1.5296 -28.5,-2.6556 -58.80015,-9.6306 -110.8254,-44.3925 -143.15455,-95.6522 -38.4132,-60.9063 -42.38086,-138.9655 -10.36433,-203.9065 42.16116,-85.518 135.15237,-131.5083 229.2065,-113.3577 15.15109,2.9238 35.71176,9.9105 51.40026,17.4662 7.37666,3.5526 12.36529,5.5702 11.08584,4.4834 -1.42871,-1.2135 -2.03389,-2.4689 -1.56847,-3.2538 0.67179,-1.1328 235.18275,-333.6328 236.06945,-334.7097 0.1956,-0.2375 2.4863,1.0582 5.0905,2.8794 3.0834,2.1563 0.9235,-0.3089 -6.1929,-7.0682 -36.70643,-34.8645 -58.69166,-77.5207 -65.0341,-126.1806 -1.76417,-13.5349 -2.01456,-38.3157 -0.51254,-50.725 7.54893,-62.3673 40.68871,-116.6047 92.34994,-151.1423 27.1499,-18.1508 56.6485,-29.1937 89.25093,-33.4117 18.3145,-2.3694 48.9266,-1.4979 66.3818,1.8898 64.5956,12.5368 119.4837,54.3285 148.5862,113.1334 3.523,7.1186 6.4055,12.6877 6.4055,12.3757 0,-0.312 -0.6798,-2.494 -1.5107,-4.849 -0.8308,-2.3549 -1.3717,-4.4206 -1.2019,-4.5905 0.5517,-0.5517 569.2836,-190.3792 570.3848,-190.3792 0.5873,0 1.6385,2.0379 2.3358,4.5287 1.9407,6.9315 2.2199,4.6728 0.4487,-3.6296 -4.2981,-20.147 -5.7049,-48.3598 -3.4102,-68.3918 4.4287,-38.6609 19.952,-75.8947 44.751,-107.3386 7.7756,-9.859 27.1596,-28.762 37.2047,-36.2812 25.242,-18.8949 53.3884,-31.4962 84.9978,-38.054 12.213,-2.5338 17.6159,-3.0961 34.2559,-3.5656 37.9146,-1.0698 67.1768,5.0486 99.2441,20.751 42.6898,20.9038 75.8008,53.9927 96.5456,96.4811 13.8487,28.3643 19.7911,52.6254 20.8192,85 0.5544,17.4566 0.7337,19.0537 1.41,12.5586 0.4261,-4.0928 0.8761,-7.5148 1,-7.6043 0.1238,-0.09 24.3002,2.4798 53.7252,5.7097 29.425,3.2299 128.2,13.9718 219.5,23.8709 288.9432,31.3282 349.8896,37.967 354.25,38.5874 4.2028,0.5981 4.2508,0.6507 4.3198,4.7412 0.056,3.3143 0.5342,2.1489 2.4058,-5.8635 4.4079,-18.8705 13.6721,-41.689 23.5955,-58.1177 34.212,-56.6398 89.8681,-92.7378 156.4289,-101.4585 11.9367,-1.5639 46.9732,-0.6683 59,1.5081 26.7775,4.8458 52.5001,14.444 74.2535,27.7074 19.7206,12.0239 43.9978,34.0035 58.0406,52.5475 21.8488,28.8522 36.0511,63.5486 40.8213,99.7271 2.4422,18.5216 1.445,50.8518 -2.0846,67.5861 -5.2971,25.1147 -13.4277,46.3346 -26.0548,68 -2.0716,3.5543 -2.1786,3.9935 -0.5095,2.09 1.1622,-1.3255 2.51,-3.119 2.995,-3.9856 1.1133,-1.9894 -11.2599,-10.9065 121.9638,87.8956 271.1707,201.107 335.5281,248.7914 362.3826,268.5 15.7377,11.55 28.6316,21.4075 28.6531,21.9056 0.021,0.4981 -1.1638,2.5231 -2.6338,4.5 -1.47,1.9769 2.9175,-1.8126 9.75,-8.4211 13.541,-13.097 22.5679,-20.2851 36.4228,-29.0033 20.1233,-12.6627 45.6478,-22.8025 70.5,-28.0069 15.4521,-3.2358 45.0863,-4.4355 63.119,-2.5551 85.9353,8.9608 158.9611,71.9562 180.4111,155.6308 5.4175,21.1334 6.7547,33.6496 6.1912,57.95 -0.3027,13.051 -1.1084,24.4067 -2.1285,30 -8.0779,44.2887 -28.2194,83.1078 -58.7403,113.2108 -17.1679,16.933 -30.6646,26.86 -51.8525,38.1384 -11.1402,5.93 -13.5177,7.6474 -6.565,4.7424 l 3.3707,-1.4084 2.5379,7.1584 c 29.8562,84.2121 113.6564,323.2913 113.6564,324.2578 0,0.7262 -1.8029,1.8605 -4.0064,2.5207 -6.954,2.0834 -3.8257,1.863 8.1945,-0.5775 51.9817,-10.5539 105.0762,-1.7993 149.4708,24.6459 77.5736,46.2094 116.8349,134.9103 98.8434,223.3115 -12.4644,61.2436 -53.8933,115.6856 -109.5828,144.0032 -15.8803,8.075 -26.8554,12.2978 -42.5267,16.3625 -31.6971,8.2215 -63.7672,9.0979 -95.8928,2.6206 -16.9279,-3.4131 -31.7061,-8.4377 -48.5,-16.4902 -7.975,-3.824 -13.6,-6.307 -12.5,-5.5179 6.1612,4.4198 9.286,-1.2787 -34.5761,63.0548 -71.2871,104.5585 -139.187,203.9473 -139.8434,204.6963 -0.3514,0.4011 -3.3259,-1.1027 -6.6098,-3.3416 -4.7627,-3.2472 -5.1614,-3.4034 -1.9707,-0.772 8.5652,7.064 26.0621,24.837 33.4256,33.9532 18.7444,23.2059 33.6537,54.1138 40.1362,83.2047 3.6138,16.2178 4.9016,28.6248 4.9016,47.2264 0,25.4318 -3.0289,44.7102 -10.5621,67.2264 -7.3047,21.833 -21.7275,47.8652 -36.4411,65.7736 -7.1013,8.6431 -24.0954,25.2568 -33.4602,32.7112 -21.5296,17.1374 -52.8054,32.0331 -81.201,38.6734 -29.2819,6.8476 -66.2383,6.8258 -95.799,-0.056 -17.9511,-4.1793 -41.9805,-13.734 -57.25,-22.764 -6.6727,-3.9461 -6.8461,-3.297 -0.25,0.9357 2.75,1.7647 5,3.6335 5,4.153 0,0.8237 -54.4121,78.9833 -203.5223,292.347 -21.5247,30.8 -61.1003,87.5 -87.9456,126 -26.8454,38.5 -50.3576,72.1334 -52.2495,74.741 l -3.4397,4.741 -3.6588,-2.741 c -2.0123,-1.5076 2.2214,3.109 9.4084,10.259 19.1928,19.0942 30.4895,34.4893 41.3618,56.3674 14.425,29.0273 20.7889,54.5102 21.7616,87.1395 1.047,35.1219 -5.1862,65.9175 -19.4552,96.1185 -30.133,63.7783 -91.6505,109.3057 -159.9861,118.4014 -13.7537,1.8307 -48.5106,1.7773 -60.7746,-0.093 z m -133.914,-337.6835 c 11.8258,-15.1427 30.2149,-32.272 46.414,-43.2344 10.4286,-7.0574 10.8003,-7.4091 4.4715,-4.2313 l -5.0286,2.5249 -29.8751,-57.6546 c -16.4313,-31.71 -66.9309,-129.0845 -112.2214,-216.3878 -45.2905,-87.3032 -82.3464,-159.1821 -82.3464,-159.7308 0,-0.5487 2.1375,-2.1103 4.75,-3.4703 6.3591,-3.3102 5.2667,-3.1769 -3.6108,0.4406 -21.531,8.7738 -43.4906,13.0272 -70.8725,13.7275 -28.7005,0.7339 -49.2727,-2.2608 -73.7667,-10.7383 -71.2662,-24.6655 -124.0162,-85.6072 -138.0564,-159.4955 -1.8032,-9.4898 -2.2973,-11.0064 -2.3619,-7.25 -0.045,2.6125 -0.4681,4.75 -0.9404,4.75 -0.4722,0 -24.8847,1.3569 -54.25,3.0154 -123.1427,6.9548 -321.4541,17.9554 -335.0467,18.5855 l -14.6554,0.6794 -0.6042,-6.3901 c -0.3324,-3.5146 -0.7463,-8.4152 -0.9199,-10.8902 -0.1736,-2.475 -0.3943,1.672 -0.4904,9.2156 -0.3698,29.0295 -6.5339,56.1719 -18.8005,82.7844 -2.4084,5.225 -3.4853,8.375 -2.3931,7 1.0922,-1.375 2.2589,-3.32 2.5927,-4.3223 0.3994,-1.1992 1.1744,-1.6052 2.2665,-1.1874 1.4278,0.5463 267.3457,163.1709 306.6597,187.5406 7.7,4.773 84.425,51.7853 170.5,104.4717 86.075,52.6864 200.375,122.6617 254,155.5006 53.625,32.8389 109.875,67.2512 125,76.4719 15.125,9.2206 27.6638,16.9121 27.8641,17.0922 0.2002,0.1801 -0.624,1.9262 -1.8316,3.8801 -3.3095,5.3549 -1.8987,4.284 3.5535,-2.6974 z m 273.414,-50.1171 c 0,-0.2019 -1.8,-1.5583 -4,-3.0142 -2.2,-1.4559 -4,-3.0791 -4,-3.6071 0,-0.8627 26.6404,-39.1583 166.9644,-240.0116 22.8629,-32.725 72.5812,-103.9375 110.4849,-158.25 37.9038,-54.3125 69.3138,-98.75 69.8001,-98.75 0.4862,0 2.5171,1.2375 4.5131,2.75 1.996,1.5125 -2.8957,-3.775 -10.8705,-11.75 -15.64,-15.6405 -24.2705,-26.5056 -33.9153,-42.6967 -6.0019,-10.0756 -6.2186,-10.3035 -9.8071,-10.3144 -2.0183,-0.01 -33.1446,-1.3518 -69.1696,-2.9904 -36.025,-1.6386 -120.85,-5.456 -188.5,-8.4831 -239.2506,-10.7057 -346.0235,-15.5473 -348,-15.78 -1.7762,-0.2091 -1.9786,-0.9069 -1.8091,-6.2354 0.176,-5.5326 0.079,-5.2989 -1.2415,3 -9.3807,58.9422 -43.2602,112.2011 -91.4382,143.7416 -9.3585,6.1267 -9.9016,6.6975 -3.1396,3.3003 2.9543,-1.4844 5.7028,-2.326 6.1078,-1.8703 0.4049,0.4556 49.2333,94.4284 108.5074,208.8284 59.2741,114.4 109.7309,211.6326 112.1263,216.0723 l 4.3552,8.0724 -3.608,1.7205 c -5.688,2.7124 -3.325,2.8857 3.2214,0.2362 33.194,-13.4347 78.9265,-17.2027 116.5038,-9.599 19.802,4.007 46.2828,14.2774 66.6645,25.8556 0.1375,0.078 0.25,-0.023 0.25,-0.2251 z M 2124.2413,3863.1747 c -0.2515,-0.9625 -0.4573,-0.175 -0.4573,1.75 0,1.925 0.2058,2.7125 0.4573,1.75 0.2516,-0.9625 0.2516,-2.5375 0,-3.5 z m 146.8107,-16.826 c 80.85,-4.4837 170.175,-9.3569 198.5,-10.8294 28.325,-1.4725 53.3,-2.7711 55.5,-2.8859 l 4,-0.2087 0.5,8.5 c 0.4844,8.2346 0.5217,8.0472 1.195,-6 2.4331,-50.7629 23.0394,-98.3019 58.6825,-135.3813 5.915,-6.1534 7.849,-8.5863 5.0195,-6.3145 -2.5316,2.0327 -5.0066,3.6812 -5.5,3.6634 -0.9172,-0.033 -256.5748,-316.2573 -257.2932,-318.2474 -0.218,-0.6037 1.357,-2.6139 3.5,-4.4671 2.7465,-2.3752 1.3001,-1.7016 -4.9016,2.2828 -17.3585,11.1525 -40.9476,21.0903 -62.7022,26.4156 -17.4807,4.2792 -28.4818,5.4648 -50.5,5.4427 -22.864,-0.023 -36.6734,-1.9024 -57.0256,-7.7613 -6.5859,-1.896 -12.0969,-3.329 -12.2467,-3.1844 -0.1498,0.1445 1.7923,1.0512 4.3156,2.0149 3.5073,1.3394 4.4414,2.139 3.9656,3.3944 -0.3424,0.9032 -30.5825,70.1349 -67.2004,153.8482 l -66.578,152.206 -2.9582,-1.5297 c -1.627,-0.8414 -3.1617,-1.3263 -3.4104,-1.0775 -0.2487,0.2487 3.1715,2.5766 7.6005,5.1732 33.2343,19.4839 62.2471,51.0052 79.8313,86.7339 8.8233,17.9276 16.6274,41.8361 18.8631,57.7881 0.7218,5.1499 0.805,5.2796 1.307,2.0381 l 0.5362,-3.4619 z m 1270.4759,6.4919 c -4.5129,-15.7355 -5.0811,-56.9519 -1.0892,-79.0105 3.9729,-21.9539 10.7752,-41.8136 20.8613,-60.9054 10.1709,-19.2523 20.6697,-33.5149 36.6172,-49.7442 l 9.0837,-9.2442 -5.555,-5.7558 c -10.7863,-11.1761 -144.7164,-149.165 -174.1062,-179.3824 -16.3832,-16.8446 -29.7877,-31.0042 -29.7877,-31.4657 0,-0.4614 2.1375,-3.0487 4.75,-5.7494 l 4.75,-4.9104 -6.5,5.2136 c -26.9841,21.6436 -60.3443,37.0415 -94.5716,43.651 -12.4856,2.411 -16.2073,2.6913 -35.9284,2.7056 -24.5256,0.018 -35.2547,-1.2126 -55,-6.3078 -26.5775,-6.8583 -49.9724,-18.3008 -75,-36.6828 l -6,-4.4068 5.3531,4.8795 5.3532,4.8796 -98.7793,107.9101 c -54.3286,59.3505 -108.4444,118.4851 -120.2574,131.4101 -11.8129,12.925 -22.3006,24.3794 -23.3059,25.4543 -1.8079,1.933 -1.8586,1.9248 -4.6505,-0.75 -4.2648,-4.0859 -5.1274,-3.2411 -1.0678,1.0457 31.6158,33.3846 52.3796,85.8705 53.025,134.0344 l 0.1704,12.7156 0.5796,-10.6679 c 0.3188,-5.8673 0.8266,-10.9143 1.1285,-11.2155 0.6256,-0.6243 262.9763,10.8938 540.9511,23.7496 26.675,1.2337 48.8043,2.0999 49.1763,1.9249 0.372,-0.1749 0.2818,-1.6938 -0.2004,-3.3752 z m -1814.5652,-54.4159 c 9.8558,-20.1222 21.3184,-36.1412 38.5505,-53.8742 27.2193,-28.0106 60.3481,-47.2026 98.0388,-56.7953 17.7217,-4.5103 29.1986,-5.7923 52,-5.8082 25.8072,-0.018 43.3935,2.5331 62.9376,9.1298 10.3972,3.5093 11.1873,3.5193 3.8621,0.049 l -5.7003,-2.7008 66.9417,-152.908 c 36.8179,-84.0994 67.1762,-153.1426 67.4628,-153.4292 0.2867,-0.2867 2.1463,0.2537 4.1325,1.2008 6.1078,2.9126 4.6733,1.2395 -2.4158,-2.8177 -35.3892,-20.2539 -64.0242,-51.0238 -82.8146,-88.9889 -3.5233,-7.1186 -6.406,-12.6877 -6.406,-12.3757 0,0.312 0.6509,2.4121 1.4465,4.667 0.7956,2.2549 1.1331,4.2768 0.75,4.493 -0.3831,0.2163 -38.7215,12.872 -85.1965,28.1238 -149.0218,48.9049 -225.7528,74.1118 -301.5,99.0457 -40.7,13.3973 -113.375,37.257 -161.5,53.0216 -48.125,15.7647 -141.95,46.5771 -208.5,68.4721 -131.9566,43.4138 -179.6931,58.9955 -180.7405,58.9955 -0.3735,0 -1.2194,-1.8029 -1.8796,-4.0064 -2.0128,-6.7181 -1.9476,-3.9062 0.1617,6.9748 3.8927,20.0811 4.474,48.2028 1.4786,71.5316 -0.4976,3.8758 -0.4696,3.8499 0.9011,-0.8347 0.7781,-2.659 1.5644,-4.9843 1.7474,-5.1673 0.183,-0.1831 12.0324,2.5197 26.332,6.0061 14.2996,3.4864 114.6493,28.0012 222.9993,54.4774 108.35,26.4761 235.7,57.5767 283,69.1123 47.3,11.5357 87.7225,21.4355 89.8278,21.9996 3.8093,1.0206 3.825,1.0459 3.2312,5.2161 -0.4822,3.3865 -0.015,2.6556 2.4336,-3.8095 1.6667,-4.4 5.4548,-12.95 8.4181,-19 z M 2874.552,3683.5471 c 0,-0.2076 -0.7875,-0.9951 -1.75,-1.75 -1.5861,-1.2438 -1.6214,-1.2085 -0.3776,0.3776 1.3064,1.6657 2.1276,2.1955 2.1276,1.3724 z m -7.714,-6.8724 -3.1063,-3.25 26.6601,-29.0489 c 14.6631,-15.9769 69.6099,-75.9476 122.1039,-133.2681 l 95.4437,-104.2192 4.4264,4.2681 c 2.4345,2.3475 3.9636,3.3681 3.3981,2.2681 -0.5655,-1.1 -2.2463,-3.125 -3.735,-4.5 -1.4888,-1.375 -5.5228,-6.1 -8.9646,-10.5 -28.0464,-35.8546 -43.9772,-80.2776 -44.6476,-124.5 l -0.1744,-11.5 -0.629,8.2005 c -0.346,4.5103 -0.8507,8.4222 -1.1216,8.6932 -0.4902,0.4902 -17.9154,-0.6368 -260.9397,-16.8757 -70.125,-4.6858 -178.575,-11.8895 -241,-16.0083 -62.425,-4.1188 -116.7625,-7.7713 -120.75,-8.1167 l -7.25,-0.628 -0.1362,-5.1325 c -0.075,-2.8229 -0.3303,-4.0075 -0.5676,-2.6325 -7.8961,45.7591 -25.6429,81.751 -56.4741,114.5335 -6.5689,6.9847 -7.9172,8.7754 -4.5652,6.0632 l 4.7569,-3.8489 1.872,2.3761 c 1.0296,1.3069 59.1005,73.231 129.0465,159.8314 l 127.1745,157.4553 -3.8034,3.2981 c -2.8107,2.4373 -1.4544,1.8379 5.1966,-2.2964 24.6334,-15.3123 52.8869,-25.5231 82.6283,-29.8618 13.5867,-1.9821 41.9126,-2.0235 56.6265,-0.083 32.8725,4.3356 69.7252,19.0725 94.7452,37.8874 7.2118,5.4232 7.8669,5.6646 3.786,1.3949 z m -1779.6029,-0.9375 c -0.3192,-0.7977 -0.5562,-0.5608 -0.6042,0.6042 -0.043,1.0541 0.193,1.6448 0.5253,1.3125 0.3323,-0.3323 0.3678,-1.1948 0.079,-1.9167 z m 2767.3169,-46.2207 c 0,-0.2245 -2.0242,-1.687 -4.4982,-3.25 -2.474,-1.563 -4.499,-3.1572 -4.5,-3.5427 0,-0.3854 22.3538,-33.4604 49.6774,-73.5 27.3235,-40.0395 67.6276,-99.1241 89.5645,-131.2991 21.937,-32.175 40.2998,-58.6478 40.8063,-58.8285 0.5065,-0.1806 2.3899,0.7113 4.1854,1.9821 1.7955,1.2708 -2.6758,-3.453 -9.9364,-10.4973 -21.9129,-21.2605 -36.4182,-41.9448 -47.7957,-68.1563 -5.7134,-13.1626 -10.2625,-27.4123 -13.0821,-40.9793 -1.9021,-9.1521 -2.3016,-10.223 -2.3558,-6.316 -0.079,5.6911 2.0863,5.1336 -28.5654,7.3538 -12.1,0.8765 -70.15,5.3735 -129,9.9934 -232.5225,18.2536 -318.4962,24.7852 -319.0432,24.2383 -0.3142,-0.3143 -0.9343,-4.3331 -1.3778,-8.9308 -0.7932,-8.222 -0.809,-8.1292 -0.9611,5.6406 -0.5114,46.3164 -17.859,93.478 -47.2787,128.5326 -6.0549,7.2147 -6.1205,7.3515 -1.9385,4.0426 l 4.3285,-3.4248 8.691,8.9248 c 4.78,4.9086 53.3549,54.9296 107.9442,111.1577 l 99.2533,102.233 7.1065,-3.5788 c 26.075,-13.1312 58.5342,-20.3779 91.2758,-20.3779 34.5469,0 64.2956,6.9129 93,21.6109 16.2848,8.3386 14.5,7.4805 14.5,6.9717 z m -2780.8975,-76.7276 c -0.6208,-1.7809 -0.7853,-3.5367 -0.3656,-3.9018 0.4197,-0.3651 47.7881,-16.0617 105.2631,-34.8815 57.475,-18.8197 151.525,-49.6793 209,-68.5769 57.475,-18.8976 147.925,-48.6082 201,-66.0235 53.075,-17.4153 146.225,-48.0132 207,-67.9952 184.488,-60.6573 212.411,-69.7815 213.8734,-69.8854 0.8222,-0.058 2.1455,1.9752 3.1886,4.9001 2.3316,6.5384 2.3323,5.732 0,-5.0468 -3.3328,-15.4315 -4.3514,-28.5411 -3.7975,-48.8744 0.8757,-32.1437 6.5027,-55.5517 20.2821,-84.3714 9.747,-20.386 21.6401,-37.605 38.4491,-55.6671 5.2422,-5.633 5.6428,-6.2643 2.07,-3.2624 -2.4365,2.0471 -4.7584,3.7221 -5.1597,3.7221 -0.6593,0 -41.5361,-48.7239 -199.1165,-237.3411 l -51.7062,-61.8902 4.2062,-3.4775 c 7.1401,-5.9032 6.5562,-5.7212 -3.7938,1.1825 -17.9846,11.996 -39.8938,21.7734 -62.6643,27.9652 -23.1767,6.3023 -56.1199,8.3457 -81.3101,5.0435 -29.6816,-3.8909 -61.1498,-15.4777 -86.0256,-31.6752 -3.5984,-2.343 -4.6195,-2.7861 -2.551,-1.107 1.8969,1.5399 4.4947,3.6998 5.7728,4.7998 l 2.3239,2 -34.6992,45 c -19.0846,24.75 -63.286,82.125 -98.2254,127.5 -34.9394,45.375 -105.6489,137.175 -157.1321,204 -51.4833,66.825 -124.5993,161.775 -162.4802,211 -37.8808,49.225 -77.8326,101.11 -88.7817,115.2999 l -19.9074,25.8 -3.6598,-2.7446 c -2.013,-1.5095 0.6151,1.7425 5.8401,7.2267 16.6024,17.4261 32.1674,39.9461 40.1264,58.0568 3.2145,7.3146 5.1224,9.3822 2.9761,3.2254 z m -53.1025,-71.2418 c 0,-0.2076 -0.7875,-0.9951 -1.75,-1.75 -1.5861,-1.2438 -1.6214,-1.2085 -0.3776,0.3776 1.3064,1.6657 2.1276,2.1955 2.1276,1.3724 z m -28.61213,-22.3235 -3.1121,-2.5939 66.66383,-86.6025 c 36.6651,-47.6314 94.7379,-123.0525 129.0507,-167.6025 34.3128,-44.55 101.5425,-131.85 149.3995,-194 187.5565,-243.5725 214.8784,-279.0306 215.6571,-279.8769 0.445,-0.4836 2.9697,0.8409 5.63,2.9537 2.9815,2.3679 0.6034,-0.5429 -6.2278,-7.6232 -6.0781,-6.2995 -13.3319,-14.3786 -16.1197,-17.9536 -17.1035,-21.9332 -29.6943,-47.1791 -37.9032,-76 -1.5555,-5.4613 -2.3137,-7.1485 -2.1208,-4.7195 0.249,3.1361 -0.05,3.8534 -1.7526,4.2086 -1.1291,0.2354 -17.3528,2.4661 -36.0528,4.957 -32.8447,4.375 -123.2374,16.5405 -461.50003,62.1113 -87.725,11.8183 -173,23.285 -189.5,25.4816 -16.5,2.1965 -30.96044,4.2068 -32.13431,4.4673 -1.9469,0.4321 -2.22035,-0.1181 -3.11422,-6.2663 -0.8748,-6.017 -0.99448,-4.8438 -1.11569,10.9376 -0.18348,23.8874 -1.95677,36.4882 -8.2214,58.42 -12.59298,44.0866 -41.68092,84.5686 -80.64652,112.2365 -8.63392,6.1306 -24.18461,15.2141 -31.2482,18.2528 -6.08055,2.6158 -6.09363,3.5561 -0.0197,1.4131 2.37159,-0.8367 4.41428,-1.404 4.53932,-1.2607 0.12504,0.1434 33.18219,93.1857 73.46034,206.7607 40.27814,113.575 81.04913,228.519 90.6022,255.4311 9.55307,26.9122 17.11842,49.1872 16.81191,49.5 -0.30652,0.3129 -1.98751,1.1378 -3.73554,1.833 -2.18847,0.8705 -2.39968,1.0969 -0.67823,0.727 18.98648,-4.0802 32.14278,-5.4911 51.20114,-5.4911 28.2829,0 47.7986,3.1948 71.2989,11.6721 11.8159,4.2623 29.7697,12.7147 37.5,17.6544 6.562,4.1932 7.6145,4.4953 3.3879,0.9724 z M 3064.6245,3217.4247 c 10.7345,-42.0831 34.0066,-79.3072 68.4275,-109.4502 5.6255,-4.9264 5.7099,-5.0621 1.3523,-2.1744 l -4.6477,3.0799 -88.4995,-130.7277 c -48.6747,-71.9002 -94.9582,-140.2733 -102.8523,-151.9402 -7.894,-11.6669 -31.9028,-47.1385 -53.3528,-78.8257 -21.45,-31.6872 -39.1305,-57.9706 -39.29,-58.4075 -0.1595,-0.4369 1.978,-2.2497 4.75,-4.0285 2.772,-1.7788 5.04,-3.3503 5.04,-3.4923 0,-0.142 -6.1263,2.8098 -13.614,6.5594 -29.8621,14.9542 -59.6106,21.9072 -93.73,21.9072 -34.8199,0 -61.9724,-6.2348 -92.4975,-21.2395 -6.9622,-3.4222 -12.9515,-6.366 -13.3096,-6.5417 -0.3581,-0.1757 -44.4335,57.4156 -97.9454,127.9808 -53.512,70.5652 -115.0413,151.7004 -136.7318,180.3004 -21.6906,28.6 -40.2515,52.8613 -41.2464,53.9141 -1.7739,1.8769 -1.9123,1.836 -7.1392,-2.1103 -3.8161,-2.8812 -1.9034,-0.5843 6.7335,8.0859 39.1532,39.3045 60.9678,90.1578 61.6046,143.6103 l 0.1608,13.5 0.7632,-9.3224 c 0.4198,-5.1273 0.9378,-9.4969 1.1512,-9.7104 0.3642,-0.3641 49.3509,2.851 366.8006,24.0742 137.8457,9.2157 262.0369,17.4586 263.0395,17.4586 0.3438,0 0.4832,2.5875 0.3098,5.75 -0.302,5.5078 -0.2522,5.413 1.1837,-2.25 0.8244,-4.4 2.4172,-11.6 3.5395,-16 z m 411.5147,16.5676 -0.6712,-5.9325 4.292,-0.5677 c 2.3606,-0.3123 50.867,-4.1707 107.792,-8.5742 56.925,-4.4035 158.4,-12.3034 225.5,-17.5553 67.1,-5.252 126.1381,-9.8137 131.1958,-10.1372 l 9.1958,-0.5881 0.3651,5.8937 0.3651,5.8937 0.1891,-6.644 c 0.9822,-34.5106 10.4136,-69.381 26.7339,-98.8417 9.5377,-17.2172 18.088,-28.6107 32.9191,-43.866 17.5124,-18.0133 34.2931,-30.4772 56.055,-41.6351 11.0677,-5.6746 12.5331,-6.7182 5.4598,-3.888 -2.2339,0.8938 -4.1883,1.4563 -4.3432,1.25 -0.1548,-0.2064 -3.2682,-8.9252 -6.9188,-19.3752 -3.6505,-10.45 -29.8272,-84.8904 -58.1704,-165.4232 -28.3433,-80.5328 -51.2793,-146.6828 -50.969,-147 0.3103,-0.3172 2.6698,-1.37 5.2434,-2.3394 2.5736,-0.9695 3.5543,-1.5309 2.1793,-1.2477 -1.375,0.2831 -6.775,1.3978 -12,2.4769 -29.1974,6.0303 -65.5273,5.3031 -93.6387,-1.8744 -20.26,-5.1728 -44.5687,-15.5661 -60.8613,-26.0216 -6.3516,-4.076 -7.1983,-4.4333 -4.1094,-1.7343 2.7089,2.367 3.638,3.8194 3.0589,4.7816 -1.4728,2.4473 -370.966,463.5771 -374.0575,466.8262 l -2.3256,2.444 -4.2832,-3.3961 c -2.7593,-2.1878 -1.198,-0.1332 4.3883,5.7749 22.8276,24.1427 38.1166,49.2773 48.1964,79.2331 4.1911,12.4555 8.6321,30.9288 8.6321,35.9071 0,1.1511 0.2831,2.0929 0.6292,2.0929 0.346,0 0.3271,-2.6696 -0.042,-5.9324 z m -91.5256,-140.9004 -4.4384,-3.8273 69.6257,-86.92 c 97.9646,-122.2979 306.8516,-382.8449 307.2984,-383.2965 0.205,-0.2072 2.7532,1.5739 5.6627,3.9579 3.6576,2.997 2.0403,0.9531 -5.2408,-6.6234 -31.657,-32.9412 -51.3341,-73.4088 -57.4188,-118.0868 -1.3102,-9.6204 -1.3469,-9.7124 -1.4474,-3.6211 l -0.103,6.25 -3.25,0.01 c -3.5373,0.01 -206.1304,5.1947 -389.25,9.9653 -63.25,1.6478 -159.55,4.1174 -214,5.4879 -54.45,1.3705 -106.7625,2.7823 -116.25,3.1372 l -17.25,0.6453 -0.1545,-11.8715 -0.1544,-11.8716 -0.7641,15.5 c -2.1276,43.1575 -18.7476,86.8387 -45.6581,120 -6.1096,7.5287 -25.2922,26.757 -32.7689,32.8469 -3.7953,3.0914 -3.702,3.0665 1.8234,-0.4847 4.6897,-3.0142 5.992,-3.47 6.6895,-2.3414 0.4763,0.7708 8.814,13.1189 18.5281,27.4403 90.9012,134.0145 264.4572,390.8813 264.4503,391.3924 0,0.3556 -2.7049,2.3835 -6,4.5066 -6.8117,4.3886 -8.2087,6.1123 -1.7413,2.1484 13.8934,-8.5153 35.3217,-17.2242 53.8643,-21.8914 45.1971,-11.3761 93.1538,-7.4964 135.2567,10.9424 10.7022,4.687 25.0048,12.4879 32.129,17.5238 5.5764,3.9418 5.7903,3.5928 0.5616,-0.9161 z m -1306.934,-49.9172 c 1.2438,-1.5861 1.2085,-1.6214 -0.3776,-0.3776 -1.6657,1.3064 -2.1955,2.1276 -1.3724,2.1276 0.2076,0 0.9951,-0.7875 1.75,-1.75 z m 31.7515,-23.6767 c 23.5714,-14.293 49.2819,-23.648 77.6209,-28.2429 15.1579,-2.4577 46.7032,-2.4388 62,0.037 13.606,2.2023 27.5319,5.6534 39.1425,9.7003 10.5492,3.6769 32.267,14.1025 41.3575,19.8535 5.8568,3.7052 5.5623,3.3246 -2.3125,-2.9889 -1.8805,-1.5076 -0.038,-4.0915 48.1286,-67.5 27.5462,-36.2627 89.8614,-118.3573 138.4782,-182.4323 l 88.3942,-116.5 -8.696,-9.2065 c -23.1135,-24.4702 -42.4533,-61.0597 -49.84,-94.2935 -1.1613,-5.225 -2.5382,-11.75 -3.0597,-14.5 l -0.9483,-5 0.1778,5.9792 0.1777,5.9792 -64.5,4.7246 c -35.475,2.5986 -120.975,8.8088 -190,13.8005 -69.025,4.9917 -181.6816,13.1434 -250.348,18.1149 -68.6663,4.9714 -125.0634,8.8236 -125.3267,8.5603 -0.2633,-0.2633 -0.7996,-4.4567 -1.1917,-9.3187 -0.6764,-8.3852 -0.744,-7.9139 -1.314,9.16 -0.4556,13.6455 -1.2519,21.2658 -3.2917,31.5 -7.6222,38.2419 -25.7809,73.8694 -51.8667,101.7629 -8.2411,8.8123 -9.911,11.4196 -3.9768,6.2093 3.5777,-3.1413 3.7298,-3.1796 5.25,-1.3255 2.4225,2.9546 154.1229,184.4028 204.2924,244.3533 l 44.7714,53.5 -4.7491,4.3858 c -3.6231,3.3459 -3.9048,3.7829 -1.1882,1.8433 1.9585,-1.3983 7.7266,-5.0684 12.8182,-8.1558 z m -267.7515,-289.3233 c 1.2438,-1.5861 1.2085,-1.6214 -0.3776,-0.3776 -1.6657,1.3064 -2.1955,2.1276 -1.3724,2.1276 0.2076,0 0.9951,-0.7875 1.75,-1.75 z m -1077.70714,-47.25 c -0.43488,-3.8439 -0.3135,-6 0.33779,-6 0.55914,0 27.50477,-3.584 59.87917,-7.9643 32.3744,-4.3804 100.93755,-13.6198 152.36255,-20.5319 51.42503,-6.9121 111.50003,-15.0163 133.50003,-18.0093 45.4283,-6.1803 289.3088,-39.0537 341.3604,-46.0131 18.8982,-2.5267 34.5667,-4.3877 34.8189,-4.1355 0.2522,0.2522 0.8246,2.6401 1.272,5.3063 0.6137,3.6573 0.8423,1.1576 0.9311,-10.1784 0.065,-8.2645 0.589,-18.8395 1.1651,-23.5 3.7528,-30.36 14.517,-61.0042 30.3749,-86.4738 5.0066,-8.0411 5.2027,-8.5455 1.8406,-4.7345 l -3.763,4.2654 -59,-47.0871 c -32.45,-25.898 -106.8125,-85.1684 -165.25,-131.7121 -58.4375,-46.5438 -106.25,-85.0365 -106.25,-85.5396 0,-0.503 1.8928,-3.227 4.2062,-6.0533 2.6369,-3.2215 -0.068,-1.0181 -7.25,5.9057 -18.1648,17.5121 -34.7844,29.168 -56.3409,39.514 -20.5578,9.8666 -41.2661,15.9002 -65.2408,19.0084 -11.9126,1.5444 -48.9684,0.6945 -59.8922,-1.3737 -20.52793,-3.8866 -41.02863,-10.7193 -59.20493,-19.7323 -7.3277,-3.6336 -12.9753,-6.3133 -12.5502,-5.9549 0.425,0.3584 1.9462,1.5305 3.3804,2.6047 l 2.6075,1.9531 -109.38956,154.9681 c -60.16426,85.2324 -113.58865,160.9262 -118.72086,168.2084 l -9.3313,13.2404 -4.38669,-3.1192 c -2.41268,-1.7155 0.62171,1.6509 6.74308,7.4809 19.17988,18.2669 33.61192,37.8693 44.59243,60.5677 6.21409,12.8455 15.07445,38.0307 16.30273,46.3399 1.00921,6.8272 1.70026,5.8626 0.89556,-1.25 z m 728.26264,-65.1875 c -0.3192,-0.7977 -0.5562,-0.5608 -0.6042,0.6042 -0.043,1.0541 0.193,1.6448 0.5253,1.3125 0.3323,-0.3323 0.3678,-1.1948 0.079,-1.9167 z m 414.1588,-76.0625 c -0.3017,-4.6327 -0.1067,-5.2796 1.6581,-5.5021 1.1,-0.1386 58.25,-4.2949 127,-9.2362 136.7387,-9.828 339.1472,-24.4394 437.8375,-31.6065 34.5607,-2.5099 63.1143,-4.2867 63.4526,-3.9484 0.3383,0.3382 0.906,4.0863 1.2615,8.3291 0.6315,7.5342 0.6501,7.4452 0.7975,-3.8121 0.638,-48.7254 19.5428,-96.9906 52.9908,-135.289 l 4.5281,-5.1848 -5.47,5.2546 -5.4701,5.2545 -90.464,-94.7143 c -49.7551,-52.0928 -101.2798,-105.9823 -114.4992,-119.7545 -13.2193,-13.7722 -67.6516,-70.7153 -120.9605,-126.5403 -53.3089,-55.825 -97.2,-101.725 -97.5358,-102 -0.3357,-0.275 -6.3423,-6.5328 -13.3479,-13.9063 l -12.7375,-13.4062 4.8085,-4.9698 4.8085,-4.9698 -6.5,5.2049 c -24.8448,19.8945 -58.6,35.3988 -90.9817,41.7893 -12.4017,2.4474 -15.5833,2.6715 -38.5183,2.7128 -26.1303,0.047 -31.363,-0.4827 -49.5,-5.0117 -14.5919,-3.6438 -15.0195,-3.6899 -7.2167,-0.7776 4.0058,1.4952 7.1086,3.1945 6.8951,3.7764 -0.2135,0.5819 -25.4981,69.908 -56.188,154.058 -116.4827,319.389 -108.9112,299.0075 -111.0455,298.9232 -1.0697,-0.042 -3.0699,-0.405 -4.4449,-0.8061 -1.375,-0.4011 2.0119,1.6802 7.5264,4.6252 22.7007,12.1232 41.2929,26.6073 59.2943,46.1926 24.0626,26.1798 42.7945,63.5088 49.3861,98.4167 1.2613,6.6794 2.4471,12.1452 2.6351,12.1464 0.1881,0 0.1881,-2.3605 0,-5.248 z m 1053.4604,-71.7571 c 1.2087,0 44.4977,-1.112 96.1977,-2.4625 51.7,-1.3504 104.575,-2.716 117.5,-3.0346 12.925,-0.3186 82.9,-2.1299 155.5,-4.0252 72.6,-1.8954 176.775,-4.5608 231.5,-5.9234 54.725,-1.3625 107.9375,-2.77 118.25,-3.1278 l 18.75,-0.6506 0.1485,10.3656 0.1485,10.3656 0.7554,-12.5162 c 1.9672,-32.5973 11.4227,-64.8713 26.9602,-92.0219 4.0588,-7.0925 5.0295,-9.3347 3.0141,-6.9619 -1.6351,1.925 -2.985,3.8856 -2.9998,4.357 -0.066,2.1007 11.5181,10.5397 -159.5269,-116.2153 -62.7,-46.4646 -121.65,-90.1957 -131,-97.1804 -9.35,-6.9846 -62.45,-46.3271 -118,-87.4278 -55.55,-41.1007 -101.8528,-75.55 -102.8951,-76.5539 -1.8555,-1.7872 -1.8255,-1.9159 1.4354,-6.1525 1.8317,-2.3799 3.8095,-4.9804 4.3951,-5.7789 0.5855,-0.7985 -4.3354,4.0974 -10.9354,10.8797 -41.0065,42.1393 -92.689,64.0953 -150.8012,64.0639 -23.2223,-0.013 -42.8077,-2.9728 -64.1275,-9.6926 -4.3608,-1.3745 -8.6358,-2.705 -9.5,-2.9567 -0.8642,-0.2517 0.2907,0.5808 2.5664,1.8499 l 4.1378,2.3076 -15.7539,33.5 c -51.3426,109.178 -116.0216,247.0833 -116.0216,247.3755 0,0.1877 2.5875,2.0457 5.75,4.1289 15.3572,10.1159 34.7552,27.848 46.6594,42.6524 14.3168,17.8048 28.1327,43.2711 35.4497,65.3432 3.8699,11.6739 8.9527,34.7045 9.3259,42.2565 0.1384,2.8012 0.2774,2.422 0.5522,-1.5065 0.3237,-4.6267 0.6282,-5.2508 2.5651,-5.2571 z M 1568.552,2411.2508 c 29.085,-22.7277 65.5315,-38.0901 101.5764,-42.8152 22.8231,-2.9918 53.8748,-1.5662 74.9598,3.4414 9.0832,2.1573 12.7793,2.1213 5.5197,-0.054 -3.1276,-0.9371 -3.9864,-1.6259 -3.5149,-2.8193 0.9609,-2.4323 162.3593,-444.7569 164.6548,-451.2491 0.9028,-2.5534 1.0825,-2.6131 4.1241,-1.3698 8.4308,3.4464 7.0955,2.194 -3.4247,-3.2121 -14.5821,-7.4935 -22.7465,-12.782 -35.3952,-22.9274 -24.3944,-19.5664 -45.3165,-45.9182 -58.6104,-73.8209 -4.971,-10.4337 -5.9313,-11.704 -3.3789,-4.4697 0.8308,2.3549 1.3544,4.4379 1.1634,4.6289 -0.6299,0.6299 -568.8982,190.3408 -570.1552,190.3408 -0.6763,0 -1.738,-1.4625 -2.3593,-3.25 l -1.1297,-3.25 0.5446,3.5 c 0.2995,1.925 1.2992,7.325 2.2215,12 2.165,10.9734 2.4148,55.4851 0.3761,67 -5.0372,28.4505 -14.9047,54.9547 -29.0395,78 -4.0996,6.684 -4.5105,7.6836 -1.923,4.6787 l 3.2904,-3.8213 90.0958,71.8213 c 49.5528,39.5017 123.9153,98.7851 165.25,131.7409 41.3348,32.9557 75.1542,60.3594 75.1542,60.897 0,0.5376 -1.6545,3.0488 -3.6767,5.5804 -2.198,2.7517 0.5167,0.5621 6.75,-5.4444 5.7347,-5.526 13.3517,-12.333 16.9267,-15.1265 z m 1057,-81.4405 c 13.7471,-9.9197 37.3935,-22.2234 52.5,-27.3167 24.2948,-8.1913 44.581,-11.5689 69.4832,-11.5689 23.8685,0 40.4403,2.4455 64.5818,9.5305 1.8862,0.5535 7.7651,-11.5392 67.9207,-139.7123 36.2206,-77.175 65.9583,-140.4602 66.0838,-140.6337 0.1255,-0.1735 3.0862,1.0673 6.5793,2.7574 7.2195,3.493 6.7773,3.1323 -5.5319,-4.5128 -33.3551,-20.7165 -59.9467,-50.1494 -77.634,-85.9291 -13.5619,-27.4345 -20.8181,-58.3548 -21.1143,-89.9738 -0.1163,-12.4083 -0.2231,-13.2369 -0.9264,-7.1832 -0.4372,3.7637 -0.9406,6.9589 -1.1186,7.1004 -0.178,0.1416 -30.2486,-3.0346 -66.8236,-7.0582 -58.9603,-6.4862 -150.6501,-16.4428 -469,-50.9291 -48.125,-5.2133 -89.4125,-9.7497 -91.75,-10.081 -3.947,-0.5593 -4.2553,-0.8258 -4.3245,-3.7386 -0.045,-1.8955 -1.177,1.0989 -2.8609,7.5679 -8.0443,30.9033 -23.5477,60.8584 -43.6276,84.2956 -6.592,7.6941 -6.9199,8.2335 -2.2597,3.7176 l 5.4512,-5.2824 82.9357,86.7515 c 45.6147,47.7133 102.9608,107.696 127.4358,133.2949 24.475,25.5988 88.3108,92.3732 141.8573,148.3876 l 97.3573,101.8442 -4.8573,5.0679 -4.8573,5.068 5.5,-4.4691 c 3.025,-2.4579 7.075,-5.6055 9,-6.9946 z m 1122.1276,5.3644 c 1.2438,-1.5861 1.2085,-1.6214 -0.3776,-0.3776 -1.6657,1.3064 -2.1955,2.1276 -1.3724,2.1276 0.2076,0 0.9951,-0.7875 1.75,-1.75 z m -896.4653,-532.5 c -0.2774,-0.6875 -0.5044,-0.125 -0.5044,1.25 0,1.375 0.227,1.9375 0.5044,1.25 0.2774,-0.6875 0.2774,-1.8125 0,-2.5 z m -635.9693,-39.481 c -0.2536,-0.9729 -0.4777,-0.419 -0.4981,1.231 -0.02,1.65 0.1871,2.4461 0.461,1.769 0.274,-0.677 0.2906,-2.027 0.037,-3 z" fill="#000000"/></g><text x="0" y="3359.7195" fill="#000000" font-size="5px" font-weight="bold" font-family="'Helvetica Neue', Helvetica, Arial-Unicode, Arial, Sans-serif">Created by Lucas Rathgeb</text><text x="0" y="3364.7195" fill="#000000" font-size="5px" font-weight="bold" font-family="'Helvetica Neue', Helvetica, Arial-Unicode, Arial, Sans-serif">from the Noun Project</text></svg>