<?xml version="1.0" encoding="UTF-8" standalone="no"?>
<!-- Created with Inkscape (http://www.inkscape.org/) -->

<svg
   width="120"
   height="120"
   viewBox="0 0 120 120"
   version="1.1"
   id="svg1"
   inkscape:export-filename="noun-brain-40409.png"
   inkscape:export-xdpi="96"
   inkscape:export-ydpi="96"
   xmlns:inkscape="http://www.inkscape.org/namespaces/inkscape"
   xmlns:sodipodi="http://sodipodi.sourceforge.net/DTD/sodipodi-0.dtd"
   xmlns="http://www.w3.org/2000/svg"
   xmlns:svg="http://www.w3.org/2000/svg">
  <sodipodi:namedview
     id="namedview1"
     pagecolor="#505050"
     bordercolor="#ffffff"
     borderopacity="1"
     inkscape:showpageshadow="0"
     inkscape:pageopacity="0"
     inkscape:pagecheckerboard="1"
     inkscape:deskcolor="#505050"
     inkscape:document-units="px" />
  <defs
     id="defs1" />
  <g
     inkscape:label="Layer 1"
     inkscape:groupmode="layer"
     id="layer1">
    <path
       d="m 39.04423,140.08866 c 0,0 -4.737352,-13.36609 -5.283967,-17.82146 -0.546619,-4.45538 -7.834851,-3.76992 -9.656909,-3.76992 -1.639851,0 -16.0341106,2.91312 -24.05116646,2.91312 -7.83484934,0 -14.21205054,-3.42722 -13.30102154,-8.73938 0.911028,-5.31216 3.2797043,-13.366088 0,-15.079695 -3.279704,-1.884956 -4.372939,-4.969445 0,-6.854414 0,0 -2.733087,-0.856799 -4.737351,-2.39904 -2.004263,-1.54224 -0.364412,-3.255851 1.457647,-5.654891 1.639852,-2.399039 0.911028,-4.96945 -7.83485,-9.082089 -8.745879,-3.941291 1.457646,-11.481141 3.097499,-12.68066 1.639851,-1.370881 10.932346,-10.11026 10.932346,-19.19235 0,-9.082095 -4.008525,-28.445801 22.046902,-43.3541457 26.055429,-14.9083403 56.4838,-17.9928253 87.823198,0 31.339403,17.9928267 37.352183,55.8634457 11.296763,81.5674847 -18.949407,20.73459 -8.74588,30.84485 0.91103,55.52073 z M 83.684652,91.422351 c 0,0 -1.275441,-10.79569 10.567936,-16.96466 C 106.09596,68.288721 106.09596,58.8639 106.09596,58.8639 c 0,0 11.47898,-11.138409 2.55089,-20.734589 0,0 1.09324,-20.734585 -10.93235,-20.734585 0,0 -5.283969,-14.3942612 -22.59352,-11.1384174 0,0 -14.940877,-10.4529762 -22.775726,-0.5140821 0,0 -16.216317,-7.0257706 -22.046902,4.2840075 0,0 -17.491759,-2.0563249 -19.313816,13.194739 0,0 -10.02131953,2.399044 -10.93234846,16.107867 -0.9110288,13.708821 14.02984646,16.96466 21.13587446,16.45058 7.106025,-0.342719 10.021319,-1.713599 10.021319,-1.713599 0,0 6.194997,5.31217 18.038376,1.713599 0,0 15.305285,4.112651 15.305285,12.337941 0,8.225291 0,23.133629 0,23.133629 h 7.288232 c 0,0 -0.182204,-13.194739 -0.182204,-20.04915 0,-6.854409 5.10176,-9.08209 7.470436,-11.13841 0.546619,-0.51408 4.919558,-3.084489 6.559409,-9.42482 1.639852,-6.340329 1.822058,-12.337939 -5.101762,-14.908338 -6.92382,-2.570403 -13.665434,-3.427206 -15.6697,-1.884963 -2.004263,1.542242 -5.101761,6.511692 -0.546616,14.051542 l -3.279706,2.399039 c 0,0 -2.915291,-3.941279 -3.279704,-8.568009 0,0 -6.377202,-1.199521 -10.021318,2.74176 l -3.461911,-1.88496 c 0,0 3.826323,-5.826251 14.029847,-4.969451 0,0 0.728823,-3.598561 3.826323,-6.511686 0,0 -2.186472,-6.340328 -7.83485,-5.312166 -5.648381,1.028161 -3.279705,1.884962 -10.385729,2.399043 0,0 -1.639855,8.225289 -11.843379,11.823859 0,0 -3.46191,3.59856 -11.29676,2.39904 -5.830586,-0.514079 -5.64838,3.941291 -5.64838,3.941291 L 10.984536,45.32645 c 0,0 1.093235,-4.455369 4.37294,-6.168969 3.279704,-1.71361 8.928084,0.685439 12.754405,-1.199531 0,0 -2.186469,-5.654884 -7.834848,-5.997604 l -0.182207,-3.941287 c 0,0 7.470438,-0.342719 11.843377,7.711213 0,0 6.012793,-1.542244 8.199263,-8.910733 0,0 -2.18647,-3.598566 -6.559411,-5.312167 l 1.275442,-3.769926 c 0,0 5.466173,1.542242 8.381468,6.340328 0,0 3.097496,0 6.377201,-1.199522 3.279706,-1.19952 5.830588,-0.8568 5.830588,-0.8568 0,0 2.368673,-3.084485 2.55088,-6.854411 l 4.555145,0.685442 c 0,0 -0.182207,3.598565 -2.550883,6.854409 0,0 4.737354,1.884963 6.012794,6.511691 0,0 3.644116,-0.17136 6.559408,0.34272 0,0 -0.911028,-5.654888 4.37294,-8.396653 l 2.368675,3.427205 c 0,0 -3.279706,2.570404 -2.004264,5.82625 0,0 9.839113,1.542241 12.754406,8.568016 0,0 4.190733,0.17136 8.19926,-4.626732 l 3.644115,2.399041 c 0,0 -3.644115,4.79809 -10.932347,6.511689 0,0 0.364413,5.826251 -2.186468,11.652501 0,0 6.92382,2.741761 7.652644,8.22529 l -4.190736,1.199521 c -2.004262,-4.96944 -5.648379,-5.31216 -5.648379,-5.31216 0,0 -4.555145,4.112639 -7.834849,6.51169 -3.279706,2.399039 -2.915291,7.71121 -2.915291,7.71121 L 75.667597,91.07963 h 8.017055 z"
       id="path1"
       style="stroke-width:1.767" />
  </g>
</svg>
