<?xml version="1.0" encoding="UTF-8" standalone="no"?>
<svg
   version="1.0"
   width="165pt"
   height="135pt"
   viewBox="0 0 165.00001 135"
   preserveAspectRatio="xMidYMid"
   id="svg1"
   xmlns="http://www.w3.org/2000/svg"
   xmlns:svg="http://www.w3.org/2000/svg">
  <defs
     id="defs1" />
  <metadata
     id="metadata1">
Created by potrace 1.16, written by Peter Selinger 2001-2019
</metadata>
  <g
     transform="matrix(0.08576597,0,0,-0.07931838,10.302443,131.34492)"
     fill="#000000"
     stroke="none"
     id="g1">
    <path
       d="m 629,1491 c -17,-18 -29,-40 -29,-56 0,-28 -6,-32 -151,-85 l -77,-29 -33,25 c -40,29 -68,30 -102,4 -31,-25 -43,-74 -27,-114 9,-26 6,-37 -31,-102 -41,-72 -44,-74 -82,-74 -49,0 -97,-43 -97,-88 0,-39 42,-90 78,-94 25,-3 29,-12 64,-117 36,-112 37,-115 19,-140 -28,-41 -32,-60 -17,-94 27,-67 85,-81 135,-33 l 29,28 119,-34 c 110,-31 119,-36 135,-66 36,-72 70,-87 127,-57 28,14 31,13 201,-103 l 173,-117 12,-50 c 14,-53 52,-95 86,-95 11,0 34,13 50,29 22,22 29,39 29,68 0,21 -5,45 -10,53 -10,16 21,78 91,182 36,52 42,57 80,60 68,5 92,50 74,138 -6,30 -2,44 26,88 30,48 35,52 61,47 23,-6 34,-1 63,28 38,38 43,63 21,105 -13,26 -37,43 -78,56 -10,3 -25,31 -37,72 l -21,66 20,33 c 30,48 26,90 -10,127 -31,31 -37,31 -105,13 -15,-4 -46,16 -115,73 -95,78 -95,78 -102,132 -8,64 -32,90 -85,90 -26,0 -41,-8 -63,-31 l -28,-32 -113,13 c -62,7 -118,14 -125,17 -7,2 -18,18 -24,34 -13,30 -55,59 -85,59 -9,0 -30,-13 -46,-29 z m 290,-106 c 57,-8 105,-16 106,-17 2,-2 11,-21 22,-43 l 20,-40 -22,-54 c -25,-60 -41,-74 -87,-69 -26,2 -47,20 -115,97 -77,88 -94,117 -76,134 9,10 35,8 152,-8 z m -293,-26 c 18,-20 18,-22 -16,-121 -34,-98 -36,-101 -74,-114 -45,-15 -60,-7 -129,64 -32,32 -38,45 -35,73 3,33 6,35 108,76 58,24 110,43 116,43 6,0 19,-9 30,-21 z m 190,-104 c 104,-115 107,-118 93,-148 -13,-28 -31,-32 -174,-42 l -90,-7 -24,36 -23,36 33,97 c 34,98 42,107 96,112 6,1 46,-37 89,-84 z m 473,-37 c 56,-45 101,-84 101,-88 0,-4 -7,-14 -16,-21 -12,-10 -55,-13 -157,-14 h -141 l -18,31 c -18,31 -18,33 4,89 12,31 26,58 32,60 6,1 25,7 41,13 17,5 35,10 41,11 7,1 57,-36 113,-81 z m -868,-76 c 63,-59 63,-59 47,-84 -15,-23 -28,-27 -154,-43 -133,-18 -137,-18 -150,0 -8,11 -14,21 -14,25 0,3 19,37 43,75 43,69 45,70 93,76 27,3 54,7 60,7 6,1 40,-24 75,-56 z m 969,-98 c 9,-23 4,-35 -37,-96 -27,-39 -61,-85 -78,-104 -28,-31 -33,-33 -75,-28 -44,6 -47,8 -93,85 -52,87 -57,119 -27,149 18,18 33,20 160,20 h 140 z m -472,-18 c 10,-22 5,-33 -44,-100 l -55,-76 h -54 -54 l -41,58 c -33,46 -40,63 -36,86 4,16 8,32 11,34 7,8 116,19 191,21 66,1 72,-1 82,-23 z M 480,989 C 493,965 488,957 353,768 280,665 265,650 241,650 c -38,0 -44,9 -80,123 l -31,97 25,50 c 27,54 16,49 170,75 119,19 142,19 155,-6 z m 1009,-5 c 2,-2 12,-33 22,-70 l 18,-66 -25,-43 c -24,-42 -27,-44 -87,-50 -155,-17 -170,7 -82,131 71,100 89,116 124,108 14,-4 28,-8 30,-10 z m -404,-88 c 30,-46 55,-91 55,-99 0,-8 -8,-24 -17,-35 -17,-19 -24,-20 -133,-11 -98,8 -118,12 -132,30 -24,29 -23,47 8,94 67,101 72,105 120,105 h 44 z M 665,876 c 34,-49 35,-55 26,-95 -5,-23 -11,-44 -13,-46 -8,-8 -327,-117 -355,-122 -25,-4 -33,-2 -33,9 0,8 38,70 85,137 135,194 131,189 178,193 50,4 64,-6 112,-76 z m 358,-151 c 119,-10 132,-35 66,-122 -41,-52 -42,-53 -93,-53 -44,0 -56,4 -78,28 -34,36 -78,104 -78,119 0,26 32,44 69,39 20,-3 71,-8 114,-11 z m 467,-5 c 27,-27 25,-40 -12,-96 -30,-45 -37,-49 -76,-52 -40,-3 -47,0 -83,39 -38,41 -47,71 -31,96 4,7 44,16 87,21 44,5 83,10 88,11 4,0 16,-8 27,-19 z M 702,693 c 23,-21 23,-32 -6,-96 -18,-43 -30,-56 -52,-61 -16,-4 -43,-18 -60,-31 l -32,-24 -118,30 c -66,17 -121,33 -124,35 -16,17 38,45 191,100 96,35 176,63 178,64 3,0 13,-7 23,-17 z m 167,-90 c 28,-38 51,-73 51,-79 0,-7 -8,-22 -18,-34 -15,-19 -31,-24 -93,-27 -74,-5 -74,-5 -91,25 -23,38 -23,48 3,116 21,54 29,60 81,65 10,0 37,-27 67,-66 z m 430,-8 40,-43 -14,-43 -13,-44 -117,2 c -65,1 -119,4 -121,6 -2,2 -6,17 -9,33 -5,24 1,37 38,79 43,49 46,51 101,51 54,1 58,-1 95,-41 z m -59,-159 c 82,-6 103,-14 95,-35 -3,-9 -34,-60 -68,-113 -62,-97 -62,-98 -102,-98 h -40 l -43,94 c -39,82 -42,97 -32,117 23,44 30,48 78,44 26,-3 76,-7 112,-9 z M 924,405 c 24,-25 42,-35 64,-35 27,0 33,-6 60,-64 40,-85 57,-134 50,-141 -8,-8 -56,22 -230,142 -171,118 -175,131 -45,132 66,1 70,0 101,-34 z"
       id="path1" />
  </g>
</svg>
