<?xml version="1.0" encoding="UTF-8" standalone="no"?>
<svg
   version="1.1"
   x="0px"
   y="0px"
   viewBox="0 0 83.333333 104.16667"
   enable-background="new 0 0 100 100"
   xml:space="preserve"
   id="svg2"
   sodipodi:docname="noun-brain-30409.svg"
   inkscape:export-filename="noun-brain-30411.svg"
   inkscape:export-xdpi="245.75999"
   inkscape:export-ydpi="245.75999"
   width="100"
   height="125.00001"
   inkscape:version="1.3.2 (091e20ef0f, 2023-11-25, custom)"
   xmlns:inkscape="http://www.inkscape.org/namespaces/inkscape"
   xmlns:sodipodi="http://sodipodi.sourceforge.net/DTD/sodipodi-0.dtd"
   xmlns="http://www.w3.org/2000/svg"
   xmlns:svg="http://www.w3.org/2000/svg"><defs
     id="defs2" /><sodipodi:namedview
     id="namedview2"
     pagecolor="#505050"
     bordercolor="#ffffff"
     borderopacity="1"
     inkscape:showpageshadow="0"
     inkscape:pageopacity="0"
     inkscape:pagecheckerboard="1"
     inkscape:deskcolor="#505050"
     inkscape:zoom="14.424"
     inkscape:cx="42.498613"
     inkscape:cy="57.508319"
     inkscape:window-width="2986"
     inkscape:window-height="2079"
     inkscape:window-x="2760"
     inkscape:window-y="68"
     inkscape:window-maximized="1"
     inkscape:current-layer="svg2" /><path
     d="m 36.720533,89.915751 c 0,0 -2.6,-7.8 -2.9,-10.4 -0.3,-2.6 -4.3,-2.2 -5.3,-2.2 -0.9,0 -8.8,1.7 -13.2,1.7 -4.3,0 -7.7999996,-2 -7.2999996,-5.1 0.5,-3.1 1.8,-7.8 0,-8.8 -1.8,-1.1 -2.4,-2.9 0,-4 0,0 -1.5,-0.5 -2.6,-1.4 -1.1,-0.9 -0.2,-1.9 0.8,-3.3 0.9,-1.4 0.5,-2.9 -4.3,-5.3 -4.8,-2.3 0.8,-6.7 1.7,-7.4 0.9,-0.8 6,-5.9 6,-11.2 0,-5.3 -2.2,-16.6 12.0999996,-25.2999995 14.3,-8.7 31,-10.5 48.2,0 17.2,10.4999995 20.5,32.5999995 6.2,47.5999995 -10.4,12.1 -4.8,18 0.5,32.4 z m 24.5,-28.4 c 0,0 -0.7,-6.3 5.8,-9.9 6.5,-3.6 6.5,-9.1 6.5,-9.1 0,0 6.3,-6.5 1.4,-12.1 0,0 0.6,-12.1 -6,-12.1 0,0 -2.9,-8.3999995 -12.4,-6.5 0,0 -8.2,-6.0999995 -12.5,-0.3 0,0 -8.9,-4.0999995 -12.1,2.5 0,0 -9.6,-1.2 -10.6,7.7 0,0 -5.5,1.4 -6,9.4 -0.5,8 7.7,9.9 11.6,9.6 3.9,-0.2 5.5,-1 5.5,-1 0,0 3.4,3.1 9.9,1 0,0 8.4,2.4 8.4,7.2 0,4.8 0,13.5 0,13.5 h 4 c 0,0 -0.1,-7.7 -0.1,-11.7 0,-4 2.8,-5.3 4.1,-6.5 0.3,-0.3 2.7,-1.8 3.6,-5.5 0.9,-3.7 1,-7.2 -2.8,-8.7 -3.8,-1.5 -7.5,-2 -8.6,-1.1 -1.1,0.9 -2.8,3.8 -0.3,8.2 l -1.8,1.4 c 0,0 -1.6,-2.3 -1.8,-5 0,0 -3.5,-0.7 -5.5,1.6 l -1.9,-1.1 c 0,0 2.1,-3.4 7.7,-2.9 0,0 0.4,-2.1 2.1,-3.8 0,0 -1.2,-3.7 -4.3,-3.1 -3.1,0.6 -1.8,1.1 -5.7,1.4 0,0 -0.9,4.8 -6.5,6.9 0,0 -1.9,2.1 -6.2,1.4 -3.2,-0.3 -3.1,2.3 -3.1,2.3 l -2.3,-0.6 c 0,0 0.6,-2.6 2.4,-3.6 1.8,-1 4.9,0.4 7,-0.7 0,0 -1.2,-3.3 -4.3,-3.5 l -0.1,-2.3 c 0,0 4.1,-0.2 6.5,4.5 0,0 3.3,-0.9 4.5,-5.2 0,0 -1.2,-2.1 -3.6,-3.1 l 0.7,-2.2 c 0,0 3,0.9 4.6,3.7 0,0 1.7,0 3.5,-0.7 1.8,-0.7 3.2,-0.5 3.2,-0.5 0,0 1.3,-1.8 1.4,-4 l 2.5,0.4 c 0,0 -0.1,2.1 -1.4,4 0,0 2.6,1.1 3.3,3.8 0,0 2,-0.1 3.6,0.2 0,0 -0.5,-3.3 2.4,-4.9 l 1.3,2 c 0,0 -1.8,1.5 -1.1,3.4 0,0 5.4,0.9 7,5 0,0 2.3,0.1 4.5,-2.7 l 2,1.4 c 0,0 -2,2.8 -6,3.8 0,0 0.2,3.4 -1.2,6.8 0,0 3.8,1.6 4.2,4.8 l -2.3,0.7 c -1.1,-2.9 -3.1,-3.1 -3.1,-3.1 0,0 -2.5,2.4 -4.3,3.8 -1.8,1.4 -1.6,4.5 -1.6,4.5 l -0.1,10.4 h 4.4 z"
     id="path1" /></svg>
