<svg xmlns="http://www.w3.org/2000/svg" xmlns:xlink="http://www.w3.org/1999/xlink" version="1.1" x="0px" y="0px" viewBox="0 0 60 75" style="enable-background:new 0 0 60 60;" xml:space="preserve"><path d="M36.32,27.83c-0.11-0.44-0.51-0.76-0.97-0.76H34.2c-0.1-0.49-0.21-0.99-0.28-1.46c-0.18-1.14,0.17-2.27,0.97-3.1  c0.8-0.85,1.93-1.26,3.09-1.13c0.18,0.02,0.32,0.03,0.44,0.03c2.44,0,4.43-1.99,4.43-4.43c0-2.03-1.35-3.73-3.24-4.25  c-0.43-2.16-2.36-3.8-4.62-3.8c0,0,0,0-0.01,0c-0.86-1.5-2.47-2.47-4.22-2.47c-1.83,0-3.46,1.01-4.29,2.58  c-2.44-0.32-4.57,1.28-5.12,3.52c-2.33,0.16-4.18,2.1-4.18,4.47c0,2.47,2.01,4.48,4.49,4.48c0.08,0,0.18,0,0.3-0.02  c1.21-0.12,2.38,0.32,3.2,1.19c0.77,0.82,1.11,1.93,0.93,3.04c-0.07,0.44-0.17,0.9-0.27,1.35h-1.15c-0.46,0-0.86,0.31-0.97,0.76  C20.93,38.77,5.52,51.64,5.36,51.77c-0.33,0.27-0.45,0.71-0.3,1.11c0.14,0.4,0.52,0.66,0.94,0.66h48c0.42,0,0.8-0.26,0.94-0.66  c0.14-0.4,0.02-0.84-0.3-1.11C54.48,51.64,39.07,38.77,36.32,27.83z M26.61,21.31c-1.24-1.33-3.02-1.98-4.84-1.81  c-0.04,0-0.08,0.01-0.12,0.01c-1.37,0-2.49-1.11-2.49-2.48c0-1.37,1.12-2.48,2.49-2.48c0.13,0,0.27,0.01,0.39,0.04  c0.29,0.04,0.58-0.03,0.8-0.21c0.22-0.18,0.36-0.46,0.36-0.75c0.04-1.47,1.21-2.63,2.68-2.63c0.27,0,0.55,0.05,0.86,0.15  c0.25,0.08,0.53,0.06,0.77-0.06c0.24-0.13,0.42-0.34,0.49-0.6c0.37-1.21,1.47-2.03,2.73-2.03c1.18,0,2.26,0.76,2.68,1.88  c0.17,0.44,0.62,0.71,1.09,0.64c0.15-0.02,0.3-0.05,0.46-0.05c1.46,0,2.68,1.2,2.71,2.67c0.01,0.51,0.41,0.93,0.92,0.98  c1.27,0.11,2.23,1.14,2.23,2.4c0,1.34-1.09,2.43-2.43,2.43c-0.06,0-0.13-0.01-0.21-0.02c-1.79-0.2-3.52,0.43-4.76,1.74  c-1.23,1.29-1.78,3.04-1.5,4.8c0.06,0.37,0.15,0.76,0.22,1.14h-4.31c0.07-0.34,0.15-0.69,0.2-1.03  C28.33,24.31,27.8,22.59,26.61,21.31z M25.42,29.07h9.17c0.65,2.21,1.74,4.45,3.06,6.64l-2.51,5.63l-3.52-6.2  c-0.17-0.31-0.5-0.5-0.86-0.51c-0.35,0.03-0.69,0.18-0.87,0.48l-2.01,3.33l-2.24-3.36c-0.28-0.42-0.83-0.57-1.28-0.34l-2.02,1  C23.67,33.54,24.76,31.29,25.42,29.07z M8.67,51.54c2.69-2.43,7.54-7.1,11.43-12.46l4.35-2.16l2.62,3.94  c0.19,0.29,0.53,0.46,0.85,0.45c0.34-0.01,0.66-0.19,0.83-0.48l1.95-3.22l3.66,6.44c0.18,0.31,0.51,0.51,0.87,0.51  c0.02,0,0.03,0,0.05,0c0.38-0.02,0.71-0.25,0.87-0.59l2.79-6.24c4.03,5.92,9.47,11.19,12.39,13.83H8.67z"/><text x="0" y="75" fill="#000000" font-size="5px" font-weight="bold" font-family="'Helvetica Neue', Helvetica, Arial-Unicode, Arial, Sans-serif">Created by Vectorstall</text><text x="0" y="80" fill="#000000" font-size="5px" font-weight="bold" font-family="'Helvetica Neue', Helvetica, Arial-Unicode, Arial, Sans-serif">from the Noun Project</text></svg>