<svg xmlns="http://www.w3.org/2000/svg" version="1.1" viewBox="-5.0 -10.0 110.0 135.0">
 <g>
  <path d="m75.734 63.344c0.20312-4.625-1.3711-8.4414-5.1562-11.223-0.76953-0.56641-1.6367-1.0078-2.4648-1.5117 0-0.003906 0.015625-0.050781 0.046875-0.078125 0.14844-0.13672 0.29688-0.27734 0.45703-0.39844 1.6797-1.2969 3.0469-2.8594 4-4.7617 2.0117-4.0117 2.2031-8.1992 1.1094-12.484-0.66406-2.5898-1.8555-4.8945-3.8398-6.7305-0.25-0.23047-0.33203-0.42969-0.25781-0.76562 0.64844-2.8164 0.55469-5.6719 0.39062-8.5273-0.023437-0.39062-0.070312-0.80078-0.51172-0.97266-0.44531-0.17188-0.78516 0.066406-1.1016 0.33203-0.33203 0.28125-0.65625 0.57422-0.98438 0.86328-0.28125 0.24609-0.55859 0.48828-0.89062 0.77734 0-0.62109 0.042969-1.1523-0.011719-1.6758-0.058593-0.59375-0.33984-0.875-0.76172-0.92578-0.53516-0.066407-0.79687 0.25781-0.98437 0.6875-0.17188 0.38672-0.33203 0.77344-0.52734 1.1484-0.65625 1.25-1.418 2.4219-2.4453 3.4062-0.28516 0.26953-0.54297 0.35938-0.95312 0.20703-0.96484-0.35156-1.9414-0.69922-2.9414-0.92578-3.2578-0.73438-6.5625-0.98438-9.8984-0.78906-3.0352 0.17578-6.0195 0.59375-8.8633 1.7266-0.32812 0.13281-0.54688 0.070313-0.79688-0.14453-1.0859-0.95312-1.8633-2.1328-2.5078-3.4102-0.24609-0.48828-0.44531-0.99609-0.69922-1.4805-0.25-0.47656-0.80859-0.63672-1.1719-0.28906-0.22656 0.21484-0.38672 0.57031-0.43359 0.88281-0.070312 0.47266-0.019531 0.96094-0.019531 1.5312-0.69922-0.60938-1.3047-1.1836-1.9648-1.6992-0.72266-0.5625-1.4414-0.26172-1.5 0.62109-0.19141 2.9023-0.30078 5.8008 0.35938 8.668 0.078125 0.33203-0.054687 0.51953-0.26562 0.76562-0.76953 0.89453-1.625 1.7578-2.2109 2.7656-2.0586 3.5391-2.6641 7.3906-2.1094 11.422 0.56641 4.1055 2.4648 7.4531 5.7969 9.9531 0.11719 0.085937 0.22266 0.19531 0.36328 0.32031-0.14844 0.066406-0.23438 0.10547-0.31641 0.14453-3.707 1.8164-6.1719 4.6641-7.0781 8.7305-0.65234 2.9414-0.34375 5.8633 0.45312 8.75 0.125 0.45312 0.20312 0.94141 0.19531 1.4102-0.023437 1.293-0.16797 2.5859-0.14453 3.875 0.027344 1.7656 0.71094 3.3125 1.8906 4.625 1.418 1.5781 3.2148 2.6055 5.1406 3.4258 4.5352 1.9297 9.3203 2.7383 14.199 3.0781 3.3867 0.23438 6.7695 0.13281 10.141-0.27344 3.4805-0.41797 6.8945-1.125 10.18-2.3672 1.9922-0.75391 3.9297-1.6133 5.5391-3.0586 1.4023-1.2578 2.4414-2.7578 2.6367-4.6602 0.13672-1.3086 0.035157-2.6406 0.039063-3.9648 0-0.61328-0.13281-1.2656 0.015625-1.8398 0.44531-1.6992 0.76953-3.4062 0.84766-5.1602zm-46.75-18.906c-1.082-2.0898-1.5156-4.3516-1.5039-6.6914 0.019531-3.0273 0.70703-5.8867 2.4062-8.4258 0.54688-0.82031 1.2617-1.543 1.9648-2.2461 0.49219-0.48828 0.68359-0.93359 0.48438-1.6484-0.61719-2.1797-0.625-4.4219-0.44531-6.7266 0.42969 0.51953 0.86719 1.0391 1.2852 1.5664 0.18359 0.23047 0.32031 0.5 0.50391 0.73047 0.24219 0.30859 0.55859 0.46484 0.94922 0.3125 0.38281-0.15234 0.59375-0.44922 0.57812-0.87109-0.007812-0.21484-0.042969-0.42969-0.078125-0.77734 0.16016 0.20703 0.24609 0.33594 0.35156 0.44531 0.71484 0.75781 1.4102 1.5352 2.1562 2.2617 0.47656 0.46484 1.0469 0.51172 1.6914 0.26562 4.1367-1.582 8.4375-2.0391 12.828-1.7656 2.4844 0.15234 4.9297 0.53516 7.2969 1.3203 0.35547 0.11719 0.71484 0.23438 1.0469 0.39844 0.77734 0.37891 1.4883 0.23047 2.0703-0.33594 0.69141-0.67188 1.3086-1.418 1.9531-2.1367 0.11328-0.125 0.19922-0.27344 0.36328-0.50391-0.03125 0.34375-0.054688 0.58984-0.070313 0.83594-0.023437 0.39844 0.13672 0.71484 0.50391 0.86719 0.375 0.15625 0.71875 0.019531 0.97266-0.26562 0.35938-0.41016 0.67969-0.85547 1.0352-1.2695 0.27734-0.32812 0.58203-0.64062 0.94141-1.0352 0.027344 0.22656 0.058594 0.35547 0.058594 0.48047-0.003906 2.2188-0.019531 4.4336-0.67578 6.582-0.15625 0.50781 0.082031 0.85547 0.41016 1.207 0.73438 0.78516 1.5352 1.5273 2.1406 2.4062 1.3438 1.9375 1.9727 4.1562 2.2383 6.4805 0.32812 2.8828-0.023437 5.6758-1.2891 8.3047-1.4688 3.0586-3.8906 5.0977-7.0156 6.3359-2.5547 1.0156-5.2383 1.5195-7.9531 1.7969-2.2461 0.23047-4.5117 0.45312-6.7617 0.40625-4.1055-0.085938-8.1914-0.48828-12.141-1.707-3.6133-1.1133-6.5234-3.1719-8.2969-6.6055zm33.512 16.883c0.29688 0.49609 0.59766 0.99219 0.93359 1.457 0.21484 0.29688 0.18359 0.5-0.046876 0.76172-1.3164 1.4844-2.6211 2.9727-3.9219 4.4688-1.3008 1.4922-2.5938 2.9961-3.8906 4.4922-0.070312 0.082031-0.14453 0.16016-0.28516 0.20703 0.10938-0.30859 0.22266-0.61328 0.33594-0.92188 1.6953-4.5078 3.3906-9.0195 5.0938-13.527 0.070312-0.1875 0.19141-0.35547 0.30469-0.52344 1.1484-1.6875 2.3047-3.3711 3.457-5.0547 0.070313-0.10156 0.15234-0.21094 0.25391-0.26563 0.48828-0.26562 0.98828-0.51172 1.5547-0.80078 0.082032 2.6953-0.875 4.9062-2.5273 6.8555-0.375 0.44141-0.74609 0.88281-1.1211 1.3203-0.45703 0.53906-0.50391 0.92188-0.14062 1.5312zm-25.266-1.7422c-0.93359-1.0312-1.8242-2.0898-2.457-3.3438-0.72656-1.4336-1.0664-2.9492-1.0469-4.6758 0.82422 0.54297 1.668 0.76953 2.1992 1.668 0.94141 1.5898 2.125 3.0352 3.1406 4.5859 0.36719 0.5625 0.55469 1.2461 0.79688 1.8867 1.6133 4.2227 3.2227 8.4492 4.832 12.672 0.03125 0.082031 0.050782 0.17188 0.007813 0.30078-0.66406-0.75-1.3281-1.5-1.9922-2.25-1.9961-2.2695-3.9844-4.5508-5.9961-6.8086-0.30859-0.34766-0.37891-0.61328-0.078125-0.99609 0.28125-0.35156 0.50391-0.75 0.75-1.1289 0.52344-0.8125 0.48828-1.1953-0.15625-1.9062zm15.363-0.94922c-0.4375 0.51562-0.875 1.0312-1.3125 1.5508-0.84766-0.003907-1.6914-0.003907-2.5391-0.007813-0.39844-0.49609-0.79688-0.99219-1.1875-1.5-0.039063-0.046875-0.019532-0.19141 0.027343-0.24609 0.80469-0.98438 1.6172-1.9648 2.4531-2.9727 0.85547 1.0625 1.6836 2.0859 2.5586 3.1719zm-0.83594-4.0664c3.5234-0.082031 6.8398-0.55078 10.207-1.3359-1.7109 2.4766-3.4961 4.8125-5.4727 7.1055-1.5625-1.9062-3.0977-3.7773-4.7344-5.7695zm-0.33984 11.852c0.13672 0.71484 0.26172 1.3203 0.36328 1.9336 0.015625 0.097656-0.035156 0.27344-0.10938 0.3125-1.2773 0.71094-2.5586 1.4062-3.9141 2.1445 0.16406-0.91016 0.30469-1.7344 0.46875-2.5508 0.023438-0.11719 0.125-0.26172 0.23047-0.31641 0.94922-0.5 1.9062-0.98438 2.957-1.5195zm-2.4922-0.80859c0.12891-0.69531 0.23828-1.2695 0.34375-1.8438 0.078125-0.42578 0.18359-0.85156 0.23047-1.2812 0.035156-0.32422 0.17969-0.42578 0.48438-0.39453 0.26172 0.027343 0.55469-0.074219 0.60938 0.36719 0.070312 0.58203 0.22656 1.1562 0.31641 1.7383 0.019532 0.14062-0.027344 0.375-0.125 0.42969-0.57031 0.33203-1.168 0.62109-1.8594 0.98438zm-5.3516-5.2148c-1.8672-2.3828-3.6758-4.6953-5.4883-7.0078 0.027343-0.039062 0.058593-0.074218 0.085937-0.11328 3.2969 0.78125 6.6406 1.1875 10.168 1.3086-1.6133 1.9688-3.1484 3.8398-4.7656 5.8125zm-0.83984 1.5703 0.125-0.10938c0.046875 0.09375 0.078125 0.20703 0.14844 0.28125 0.52344 0.52344 1.1289 0.51172 1.6172-0.074218 0.51953-0.62109 0.99609-1.2734 1.5469-1.9805 0.5 0.60547 0.97266 1.1406 1.4023 1.7109 0.097656 0.13281 0.09375 0.38281 0.054687 0.56641-0.40234 1.9688-0.82422 3.9336-1.2383 5.8984-0.14062 0.67188-0.27734 1.3398-0.50391 2.0312-1.0508-2.7734-2.1016-5.5508-3.1523-8.3281zm4.6406 11.168c1.5352-0.86328 3.0859-1.7031 4.6328-2.543 0.050782-0.027344 0.11328-0.035157 0.22266-0.066407 0.14062 0.60938 0.28125 1.1953 0.39453 1.7891 0.019531 0.10156-0.0625 0.28516-0.14844 0.33594-1.5664 0.89844-3.1445 1.7812-4.7188 2.668-0.023437 0.015625-0.058593 0-0.15234 0-0.13281-0.58203-0.28125-1.1523-0.38672-1.7344-0.023438-0.14062 0.050781-0.38672 0.16016-0.44922zm5.0547-10.906c-0.039063-0.20703 0.03125-0.49219 0.16016-0.66406 0.38281-0.50391 0.82031-0.96875 1.2656-1.4883 0.45703 0.58594 0.88672 1.1328 1.3125 1.6836 0.73047 0.94531 1.1836 0.99219 2.1406 0.25391-1.0508 2.8086-2.1016 5.6172-3.1523 8.4258-0.035156-0.003906-0.066406-0.007813-0.10156-0.011719-0.17969-0.94922-0.34766-1.9023-0.53906-2.8477-0.35938-1.7852-0.74219-3.5664-1.0859-5.3555zm-3.3281 19.02c-0.050781 0.52344-0.011718 1.0547-0.011718 1.6875-0.83594-0.046876-1.5977-0.082032-2.3555-0.13281-2.9141-0.19141-5.8047-0.56641-8.6523-1.2148-0.92578-0.21094-1.8281-0.51953-2.7461-0.76562-0.33984-0.09375-0.44922-0.27344-0.44531-0.63281 0.019531-4.1367 0.019531-8.2695 0.023437-12.406 0-0.20312-0.003906-0.40625-0.042968-0.60547-0.089844-0.42578-0.45312-0.70312-0.875-0.69141-0.41406 0.007812-0.79297 0.3125-0.85156 0.73047-0.042969 0.30859-0.042969 0.62109-0.042969 0.93359-0.007812 3.6211-0.015624 7.2422-0.019531 10.859v0.98438c-0.43359-0.20312-0.79297-0.37109-1.1523-0.54297-1.1992-0.58203-2.3281-1.2578-3.2891-2.2031-1.0625-1.043-1.6875-2.2969-1.7305-3.7773-0.125-4.1562 0.63672-8.1133 2.8789-11.68 0.59375-0.94531 1.3828-1.7656 2.0625-2.6562 0.19141-0.25 0.39063-0.53516 0.46094-0.83203 0.097656-0.41797-0.12109-0.77344-0.51562-0.95312-0.375-0.16797-0.76562-0.089844-1.0352 0.20703-1.6484 1.8086-3.0938 3.7578-3.9844 6.0664-0.16797 0.43359-0.33203 0.87109-0.53516 1.2969-0.30078-2.4023-0.21484-4.7656 0.77734-7.0234 1.0039-2.2852 2.6875-3.9336 4.8711-5.2031 0.046875 0.23828 0.10156 0.41016 0.11719 0.58984 0.23438 2.4844 1.3281 4.5859 2.9062 6.4688 0.14844 0.17969 0.27734 0.38672 0.44922 0.53906 0.33203 0.28906 0.28516 0.55859 0.054688 0.88281-0.28906 0.40625-0.54688 0.83203-0.80469 1.2617-0.46484 0.77734-0.4375 1.1211 0.16406 1.8047 1.7422 1.9805 3.4961 3.9453 5.2305 5.9336 2.9141 3.3359 5.8164 6.6875 8.7266 10.023 0.26953 0.30859 0.41016 0.61719 0.36719 1.0508zm0.95703-2.3984c-0.54688-0.64453-1.0312-1.2227-1.5586-1.8438 1.6484-0.90625 3.2617-1.7891 4.8711-2.6719 0.058594 0.058594 0.11719 0.11328 0.17188 0.17188-1.1523 1.4336-2.3008 2.8672-3.4844 4.3438zm23.703-13.883c-0.09375-0.24219-0.15625-0.39453-0.21094-0.55078-0.76172-2.1953-1.9336-4.1484-3.4727-5.8828-0.28906-0.32812-0.56641-0.66797-0.87109-0.97656-0.35938-0.36719-0.8125-0.40625-1.1836-0.14453-0.37109 0.26562-0.48047 0.75781-0.23828 1.2109 0.10938 0.20312 0.24609 0.39844 0.40625 0.56641 2.8359 2.957 4.2578 6.5625 4.7578 10.562 0.14062 1.1406 0.19531 2.3008 0.19141 3.4531-0.011719 1.6562-0.67578 3.0469-1.9023 4.1758-1.2461 1.1445-2.6836 1.9531-4.293 2.5781-0.015624-0.16406-0.039062-0.28125-0.039062-0.39844-0.007812-3.9492-0.011719-7.8945-0.015625-11.844 0-0.8125-0.30078-1.2383-0.87109-1.2422-0.59766 0-0.91406 0.42969-0.91016 1.2656 0.007813 4.0742 0.003906 8.1445 0.039063 12.219 0.003906 0.54297-0.1875 0.73828-0.67578 0.89062-3.7734 1.1914-7.6523 1.7305-11.586 1.9688-0.55859 0.035156-1.1211 0.054688-1.6836 0.082031-0.0625 0.003907-0.12109-0.007812-0.26953-0.019531 0-0.48828 0.054687-0.98828-0.015625-1.4727-0.085938-0.57422 0.14062-0.96094 0.49609-1.3672 3.9609-4.5156 7.9102-9.043 11.863-13.562 0.67578-0.77344 1.3555-1.5469 2.0312-2.3281 0.51562-0.59766 0.55469-0.86328 0.16406-1.5547-0.30469-0.54297-0.64062-1.0742-0.98438-1.5898-0.16016-0.23828-0.14062-0.38281 0.054688-0.60156 1.4336-1.6094 2.6719-3.3398 3.1953-5.4805 0.17188-0.69531 0.27734-1.4023 0.42969-2.1758 1.5586 0.89062 2.9219 2.0117 3.9414 3.5195 1.7773 2.625 2.0977 5.5391 1.6562 8.7031z"/>
  <path d="m40.129 46c3.4531-0.085938 6.7461-2.9141 7.3672-6.3086 0.042968-0.22266 0.18359-0.46875 0.35547-0.61719 1.1758-1.0195 2.7773-1.0859 4.0664-0.19531 0.28516 0.19531 0.52734 0.38672 0.60938 0.77344 0.90625 4.3867 5.2578 7.168 9.6172 6.1719 3.1875-0.72656 5.5234-3.3828 5.9766-6.793 0.52734-3.9883-2.0273-7.8164-5.9453-8.7148-4.0742-0.93359-7.832 1.3086-9.2344 4.918-0.070312 0.17969-0.14062 0.35938-0.20703 0.54297-0.0625-0.078125-0.074219-0.14062-0.0625-0.19922 0.46875-2.5977 1.7461-4.6992 3.9219-6.1992 2.3125-1.5938 4.8203-1.9844 7.4727-0.94922 1.9258 0.75391 3.3555 2.1172 4.4648 3.8438 0.34766 0.54297 0.80859 0.66406 1.2656 0.37891 0.52344-0.32422 0.66016-0.81641 0.32031-1.3633-0.32031-0.51562-0.66797-1.0195-1.0664-1.4766-2.5156-2.8945-5.6562-4.3086-9.4922-3.6289-3.7109 0.65625-6.2812 2.8789-7.8477 6.2852-0.56641 1.2305-0.83984 2.5352-0.98047 3.8906h-1.4141c-0.050781-0.39453-0.085937-0.78125-0.14453-1.1641-0.84766-5.4688-5.9492-9.9805-11.82-9.0586-3.332 0.52344-5.7148 2.4062-7.457 5.2031-0.30078 0.48438-0.15234 1.0195 0.28906 1.3125 0.41797 0.27344 0.83594 0.17578 1.2148-0.30469 0.32812-0.41797 0.61328-0.86719 0.95312-1.2734 2.0352-2.4023 4.5938-3.5898 7.75-3.0859 3.7617 0.60156 6.7422 3.8398 7.1914 7.7227-0.046875-0.10938-0.097657-0.22266-0.13672-0.33594-1.3203-3.7891-5.2812-5.9648-9.2031-5.0586-4.3789 1.0117-6.9609 5.3203-5.8555 9.7852 0.89453 3.625 4.1289 5.9961 8.0352 5.8984zm20.367-14.016c3.1797 0.019531 5.8281 2.7812 5.8203 6.0586-0.011718 3.4492-2.5898 6.0859-5.9531 6.0859-3.3594 0-6.0938-2.7344-6.1016-6.1094-0.007813-3.3203 2.8203-6.0586 6.2344-6.0391zm-26.801 5.707c0.10938-3.1914 2.9062-5.7891 6.125-5.6914 3.375 0.10547 6.0664 2.9062 5.9531 6.1953-0.11719 3.3984-2.875 6.0352-6.2031 5.9297-3.4453-0.10938-5.9922-2.9023-5.875-6.4375z"/>
  <path d="m53.758 43.809c-0.97656-0.72266-1.9844-1.4062-2.9766-2.1055-0.50781-0.35547-1.0195-0.35156-1.5195 0.003906-1.0273 0.73438-2.0586 1.4609-3.0703 2.2227-0.53516 0.40234-0.61328 0.83203-0.30469 1.4414 0.23047 0.45703 0.49609 0.90234 0.75391 1.3477 0.76562 1.3203 1.5352 2.6406 2.3125 3.957 0.22266 0.37891 0.54688 0.64062 1.0156 0.64453 0.62891 0 0.99609-0.38672 1.2812-0.87891 0.95312-1.6445 1.8984-3.293 2.8438-4.9453 0.42969-0.75 0.36328-1.1641-0.33984-1.6836zm-3.7031 5.1328c-0.085938-0.074218-0.11328-0.089844-0.12891-0.11328-0.6875-1.2578-1.375-2.5156-2.0859-3.8203 0.66016-0.47656 1.3242-0.96094 2-1.4258 0.078125-0.050781 0.26953-0.011719 0.36328 0.054688 0.66016 0.44141 1.3047 0.90234 2.0156 1.3945-0.72266 1.3047-1.4375 2.5938-2.168 3.9102z"/>
  <path d="m43.328 37.156c-0.55469-2.4805-3.3672-3.6328-5.4648-2.2344-0.27344 0.18359-0.48828 0.46094-0.76562 0.73047 0.36328 0.16406 0.61719 0.25 0.83984 0.38672 0.46094 0.28125 0.72266 0.76953 0.53906 1.1758-0.11719 0.25781-0.40234 0.51562-0.67187 0.61328-0.41797 0.15625-0.90234-0.14062-1.1562-0.58594-0.074219-0.13281-0.13672-0.26953-0.27344-0.54688-0.10938 0.25781-0.1875 0.39063-0.22656 0.53125-0.19922 0.73438-0.12891 1.457 0.15625 2.1523 0.73437 1.7812 2.7422 2.6836 4.6133 2.0898 1.7734-0.5625 2.8281-2.4492 2.4141-4.3125z"/>
  <path d="m58.676 41.273c1.4492 0.69141 3.1719 0.41016 4.2422-0.69141 1.1758-1.2109 1.4414-2.9102 0.67578-4.3555-0.73047-1.3867-2.2266-2.1133-3.8164-1.832-0.65625 0.11719-1.2578 0.37109-1.7344 0.85547-0.29688 0.30078-0.24219 0.42188 0.12109 0.60547 0.26953 0.13672 0.54688 0.30469 0.75 0.52734 0.29297 0.31641 0.30469 0.71875 0.074219 1.082-0.23828 0.38281-0.64062 0.48438-1.0234 0.33984-0.28516-0.10938-0.52344-0.36328-0.75781-0.57813-0.10547-0.097656-0.14844-0.26172-0.22266-0.39453h-0.14062c-0.066406 0.23438-0.15625 0.46484-0.19141 0.70312-0.21094 1.5195 0.63672 3.0781 2.0195 3.7383z"/>
 </g>
<text x="0.0" y="117.5" font-size="5.0" font-weight="bold" font-family="Arbeit Regular, Helvetica, Arial-Unicode, Arial, Sans-serif" fill="#000000">Created by Bayu Purnama Jatnika</text><text x="0.0" y="122.5" font-size="5.0" font-weight="bold" font-family="Arbeit Regular, Helvetica, Arial-Unicode, Arial, Sans-serif" fill="#000000">from Noun Project</text></svg>